<?xml version="1.0" encoding="UTF-8"?>
<svg id="Layer_1" data-name="Layer 1" xmlns="http://www.w3.org/2000/svg" viewBox="0 0 264.9 373.16">
  <defs>
    <style>
      .cls-1 {
        fill: #fff;
      }

      .cls-2 {
        fill: #1c492a;
      }
    </style>
  </defs>
  <path class="cls-1" d="M121.12,356.98l122.5-86.35L179.36,33.65h-110.45c-24.1,46.19-58.27,116.74-50.21,166.68,9.34,57.83,38.16,122.5,102.42,156.64Z"/>
  <g>
    <path class="cls-2" d="M264.08,219.83c7.37,61.81-35.73,130.88-93.67,148.77-46.98,14.51-89.57-7.16-119.1-43.97C1.55,262.62-13.4,178.08,12.56,102.95c12.1-35.02,33.29-63.64,63.73-83.75C102.5,1.88,134.58-4.57,164.3,3.35c35.51,9.47,54.83,40.93,49.1,76.25-5.19,31.93,3.92,60.33,24.37,84.18,13.68,15.96,23.8,34.99,26.31,56.05ZM158.4,163.63c12.38-6.64,19.8-18.03,19.73-30.63-.07-12.11-7.81-24.27-20.18-29.51l-39.27-16.63c-2.57-1.09-5.61-6.9-4.67-9.37,4.6-12.12,27.44,1.32,35.16,5.37,7.88,4.13,16.93,4,23.1-2.46,4.55-4.77,6.78-13.28,3.83-21.18-3.68-9.85-13.51-16.38-24.08-19.02-30.84-7.71-77.27,6.48-77.31,38.67-.04,37.26,59.07,37.83,54.92,53.73-.7,2.68-6.43,6.02-9.6,6.02-31.54-.05-41.66-32.66-61.31-26.19-5.7,1.88-11.77,9.04-12.16,16.57-1.67,32.23,64.37,60.08,111.85,34.62ZM153.25,285.96c1.81-9.57,17.34,13.85,38.24,8.57,8.91-2.25,19.57-7.21,25.74-17.21,17.6-28.5,15.12-66.43-4.76-92.94-12.96-17.28-34.92-21.65-51.24-7.5-6.16,5.35-8.42,13.74-6.71,21.76,6.26,29.4-4.99,57.65-34.06,70.21-10.25,16.27-9.26,72.54,19.09,66.36,21.18-4.62,10.91-34.51,13.71-49.25ZM128.54,248.38c12.94-11.88,17.57-31.5,11.71-48.29-8.29-23.78-35.54-5.95-76.34-24.92-4.05-1.88-11.45-1.75-14.52.58s-6.63,8.95-6.77,13.51c-.88,27.86,6.43,91.13,30.27,107.86,4.08,2.86,12.45,2.02,16.03-.56,15.38-11.05-5.94-38.65,1.35-41.9,4.29-1.91,20.98,9.59,38.27-6.28Z"/>
    <path class="cls-1" d="M186,255.17c16.08-17.46,11.03-43.84,2.28-45.12-12.58-1.83-25.28,41.04-14.05,47.28,2.36,1.31,9.78,0,11.77-2.16Z"/>
    <path class="cls-1" d="M104.54,216.77c-.58-3.79-4.87-8.17-7.82-9.7-2.82-1.46-9.8-1.64-12.01,1-4.54,5.44-3.42,13.79.79,19.17,2.06,2.63,10.26,2.41,13.54.8,2.99-1.47,6.2-6.66,5.49-11.27Z"/>
    <path class="cls-2" d="M186,255.17c-1.98,2.15-9.41,3.47-11.77,2.16-11.24-6.24,1.47-49.11,14.05-47.28,8.75,1.28,13.8,27.66-2.28,45.12Z"/>
    <path class="cls-2" d="M104.54,216.77c.71,4.62-2.5,9.8-5.49,11.27-3.28,1.61-11.49,1.83-13.54-.8-4.21-5.38-5.33-13.73-.79-19.17,2.2-2.64,9.18-2.46,12.01-1,2.95,1.53,7.24,5.92,7.82,9.7Z"/>
  </g>
</svg>