<?xml version="1.0" encoding="UTF-8"?>
<svg id="Layer_1" data-name="Layer 1" xmlns="http://www.w3.org/2000/svg" viewBox="0 0 349.57 129.84">
  <defs>
    <style>
      .cls-1 {
        fill: #fff;
      }
    </style>
  </defs>
  <g>
    <path class="cls-1" d="M61.56,84.99c-1.55,5.67-6.38,11.47-11,14.31-12.36,7.59-28.75,5.5-40-4.11-9.32-7.96-14.1-22.79-7.5-33.74,3.95-6.54,11.9-9.46,18.92-6.16,9.53,4.49,6.69,12.87,8.2,18.19.52,1.83,3.24,2.62,4.75,2.44,1.97-.24,3.64-1.43,4.35-3.58.95-2.88.42-6.08-1.14-8.8-6.3-10.95-25.14-15.57-27.27-34.99-1.13-10.31,4.13-19.75,13.01-24.92C29.06.62,34.66-.19,40.78.09c9.3.43,17.68,5.6,22.86,13.26,4.52,6.69,5.1,17.57.24,24.27-2.72,3.75-6.68,6.09-11.13,5.69-4.2-.38-8.73-2.54-10.31-7.06-1.94-5.54.83-10.68-4.43-11.13-2.65-.23-4.56,1.1-5.17,3.61-1.81,7.55,4.14,13.07,9.67,17.39,4.38,3.41,8.39,6.82,12.21,10.89,7.02,7.5,9.56,18.04,6.85,27.99Z"/>
    <path class="cls-1" d="M323.38,99.17c-6.43-4.32-7.92-11.65-9.67-18.17-.52-1.95-2.19-7.71-4.72-7.26-2.9.52-4.59,7.94-5.3,10.72-.93,3.63-2.03,6.96-3.49,10.45-4.13,9.86-13.47,16.57-24.45,14.58-4.31-.78-8.29-3.23-10.12-6.65-2.35-4.4-2.37-9.18.12-13.28,2.21-3.65,6.11-5.39,10.13-6.28,4.47-.98,7.96-3.34,11.36-6.15,5.86-4.84,11.94-12.45,11.43-20.54-.37-6.03-6.29-14-10.29-18.47-3.5-3.93-7.86-6.21-12.56-8.2-3.7-1.56-5.88-5.49-6.18-8.79-.39-4.19,1.06-7.83,4.63-10.35,7.48-5.29,17.96-3.47,23.77,3.63,3.21,3.93,4.72,8.34,5.79,13.25l1.36,6.24c.54,2.49,1.1,5.22,2.72,7.24,1.13,1.4,3.41.41,4.19-.97,4.73-8.29,5.68-28.45,19.55-29.99,4.64-.51,9.5.34,12.73,3.44,7.01,6.73,6.28,17.83-1.51,23.47-2.91,2.11-6.25,3.15-9.7,4.38-5.53,1.97-10.28,5.55-12.98,10.79-3.24,6.29-.28,13.74,6.54,16.15,2.88,1.02,6.33.22,9.49.08,6.59-.3,11.84,4.09,13.02,10.58,1.47,8.06-2.1,16.66-9.48,20.77-4.98,2.78-11.66,2.5-16.38-.66Z"/>
    <path class="cls-1" d="M239.95,98.52c-7.73,4.03-11.95,4.06-20.26,3.73-1.06-.04-2.39-.63-3.42-.89-4.88-1.24-9.56-3.32-12.64-7.42-3.08-4.09-2.12-9.85-.18-14.3,2.23-5.1,4.46-10.2,5.32-15.86.76-4.97.72-10.28-.09-15.11-.75-4.45-2.69-8.14-4.77-11.82-2.98-5.29-1.46-11.32,2.85-15.4,4.48-4.25,10.38-6.04,16.56-6.39,6.65-.38,12.63,1.51,17.66,5.84s6.7,10.25,6.23,16.82c-.29,3.98-2.1,7.72-4.88,10.75l-4.57,4.99c-.6.66.07,2.31.87,2.67,4.7,2.14,7.55,3.25,10.41,8.21,4.73,8.22,4.63,18.4-.65,26.23-2.22,3.28-4.98,6.15-8.43,7.95ZM222.51,43.49c3.48,1.97,7.18-1.8,7.34-5.02.09-1.79.24-3.76-.87-5.08-2-2.41-6.38-2.16-7.77.73s-1.73,7.66,1.29,9.37ZM233.93,75.28c-.1-3.54-2.27-5.89-5.74-6.49-3.85-.67-7.31,2.8-7.51,6.77-.12,2.53.1,5.21,2.09,6.85,2.36,1.95,5.44,1.61,7.8.17s3.46-3.87,3.37-7.3Z"/>
    <path class="cls-1" d="M123.3,89.98c-1.26-8.4-6.2-8.37-11.21-15.86-2.27-3.39-2.24-6.91-.84-10.59,2.16-5.67,1.92-14.75.56-20.61l-1.19-5.13c-1.41-6.1-2.06-16.16,4.61-19.6,3.09-1.59,7.01-1.82,10.17.34,2.76,1.88,4.86,5.19,5.94,8.4l2.82,8.33c.76,2.26,4.13,14.96,7.45,14.39,2.05-.35.7-6.8.37-7.84l-5.08-15.96c-1.34-4.21-1.4-8.97-.81-13.32.84-6.31,5.85-11.47,11.97-12.39,3.71-.56,6.98.44,9.85,2.39,4.84,3.29,5.53,9.15,2.88,14.18-1.84,3.5-3.93,7.03-4.97,10.88-2.15,7.91-1.73,15.91-.4,23.98,1.1,6.73,2.93,12.99,3.18,19.87.11,3.09-1.22,6.3-3.09,8.7-1.2,1.54-3.93,3.22-5.9,3.15-5.22-.21-9.27-3.74-11.53-8.09-3.54-6.8-4.81-15.68-8.87-24.04-.29-.59-1.48-1.39-2.08-1.43-4.2-.29,1.65,12.52,2.31,14.19l3.09,7.9c1.61,4.12,2.45,8.67,1.11,12.81-1.43,4.42-6.19,7.45-10.33,5.35Z"/>
    <path class="cls-1" d="M99.08,101.97c-19.34-11.4-1.36-42.48-14.33-40.48-2.27.35-3.85,2.38-3.51,5.07,1.01,8,7.51,19.02-.66,27.12-4.07,4.03-10.72,3.9-15.09-.06-1.38-1.25-1.5-3.26-.69-4.74,1.88-3.42,2.19-6.88,2.3-10.64.16-5.7-.58-10.83-3.45-15.81-1.21-2.1-1.52-5.48-.39-7.67,2.44-4.72,4.55-9.29,5.92-14.45l2.9-10.97c2.27-8.6,7.49-17.08,17.36-17.46,4.84-.19,9.26,1.18,12.03,5.23,5.35,7.8,3.51,16.05,2.71,25.49-.93,11.09-1.45,25.21,4.95,34.48,1.52,2.2,3.55,4.03,5.56,5.73,5.46,4.62,5.86,12.6.58,17.65-4.33,4.14-10.95,4.6-16.18,1.52ZM90.48,34.25c-.12-.59-1.16-1.6-1.71-1.52-3.42.45-7,9.56-6.39,14.63.27,2.23,3.21,2.76,4.72,2.14,4.11-1.71,4.04-12.06,3.39-15.24Z"/>
    <path class="cls-1" d="M190,85.55c-7.4,5.18-21.22,7.66-26.62-.07-5.54-7.94,2.43-15.33,1.74-27.65-.23-4.1-.37-8.83-2.6-12.25-2.71-4.16-4.92-8.66-2.7-13.7,1.62-3.67,5.3-5.72,9.16-6.73,6.93-1.8,15.14.6,21.24,4.47,15.75,9.97,18.5,30.99,9.31,46.11-2.36,3.88-5.86,7.26-9.53,9.83ZM186.47,62.67c2.31-6.03,1.88-14.64-5.23-17.66-.79-.34-2.47-.12-3.08.42-1.93,1.7.09,7.63-.17,12.78l-.4,7.86c-.03.63.71,1.76,1.19,2.06,2.27,1.46,6.51-2.36,7.7-5.47Z"/>
    <path class="cls-1" d="M289.64,60.24c-1.4,11.51-9.78,20.9-21.12,21.07-4.04.06-7.82-1.65-11.14-3.59-1.88-9.49-1.7-12.96-9.05-20.09-1.67-12.48,7.39-25.87,21.15-25.28,14.47.62,21.8,14.48,20.17,27.89ZM273.27,51.4c-.73-1.46-2.38-2.53-3.76-2.68s-3.25.69-4.14,2.01c-2.04,3.01-2.24,6.96-.69,10.18.87,1.82,2.62,2.79,4.53,2.86,4.4.16,6.53-7.42,4.06-12.37Z"/>
  </g>
  <g>
    <path class="cls-1" d="M189.87,120.57c.53,1.49-2.73,3.5-2.52,5.09.06.44.85.81,1.29,1.44-.68,1.22-3.03,3.03-4.57,2.31-1.01-.47-1.32-1.29-2.75-.78-2.84,1.02-6.4,1.45-9.34.36-1.86-.69-1.45-3.13-1.1-4.54.72-2.95,3.99-3.94,5.54-5.95.75-2.27,0-5.3,2.66-7.05,4.02-2.64,9.85-2.86,11.16-.17.39.81.47,1.89,0,2.87-1.14,2.39-5.25,5.09-6.23,3.36-.67-1.19,2.64-2.61,1.5-3.97-.85-1.01-2.28-.56-3.07.11-2.68,2.27.59,6.83,2.33,8.9.7-1.04,1.12-1.92,1.95-2.28.78-.34,2.78-.75,3.15.28ZM179.5,125.8c1.94-.84-1.79-3.83-1.28-3.5-.67-.44-1.98.4-2.41.98-.4.54-.74,2.11-.16,2.43,1.46.78,2.39.72,3.85.09Z"/>
    <path class="cls-1" d="M91.06,123.91c-3.46,0-1.97,3.21-4.8,5.31-.99.73-2.55.51-3.6-.11l8.77-18.8c2.2-.76,4.35-.29,6.64-.56s4.83.23,5.78,2.47c1.35,3.16-3.49,11.69-12.79,11.69ZM96.45,119.36c1.04-.78,2.01-2,2.39-3.31.17-.6-.69-1.72-1.2-1.87-1.18-.35-2.34-.07-3.56-.21-.38,2.53-3.05,5.15-1.79,6.14,1.1.86,4.54-1.03,4.16-.75Z"/>
    <path class="cls-1" d="M208.01,124.02c-.93,1.54-1.34,3.13-2.43,4.37-1.03,1.17-3.04,1.23-4.37.62l8.4-17.19c.74-1.51,1.87-2.23,3.58-2.14,3.31.19,10.17-.8,9.41,4.07-.64,4.12-3.68,8.54-7.92,9.21l-6.66,1.05ZM210.3,120.03c2.48.89,4.24.04,5.76-1.13,1.29-1,2.33-3.09,1.37-4.82-.56-1-3.24-1.1-4.05-.31-1.72,1.68-2.45,4.02-3.08,6.26Z"/>
    <path class="cls-1" d="M150.32,129.46c.56-3.04,4.05-7.32,3.44-9.96-.25-1.06-2.32-.54-2.89.1-5.07,5.62-4.19,11.71-9.4,9.56,1.35-3.42,2.9-6.42,4.53-9.63s2.78-6.67,4.77-9.8c.77-1.21,3.05-.99,4.01-.39l-2.62,7.01c2.42-.36,4.6-2.02,6.29-.19,1.85,2.01-3.12,10.73-4.25,13.27-1.36.14-2.51.28-3.88.02Z"/>
    <path class="cls-1" d="M227.36,115.67c.76-.69,2.61-.37,3.53.04l-3.44,7.31c-.31.66-1.02,2.38-.31,2.86,1.77.88,3.54-.87,4.31-2.32l4.31-8.15c1.44-.34,2.77-.3,4.28.06l-6.53,13.13c-.37.75-1.4.96-1.93,1.07-.89.18-1.7-.39-2.13-1.38-2.03,1.2-4.24,1.72-6.54,1.11-3.48-.93,3.16-11.94,4.44-13.72Z"/>
    <path class="cls-1" d="M131.2,126.28c3.02.7,3.77-3.9,6.71-1.14-.15,1.95-2.08,2.81-3.87,3.9-1.93,1.18-7.13,1.35-7.75-1.51-1.06-4.82,3.16-10.13,7.61-11.75,1.93-.7,4.11-.35,5.86.23,1.27.42,1.76,2.74,1.15,3.81-.64,1.11-2.82,1.68-3.79.97-.57-.41-.54-2.47-1.88-2.08-3.62,1.07-6.39,7.03-4.03,7.57Z"/>
    <path class="cls-1" d="M244.09,129.3c-1.26.21-2.46.16-3.7-.17.98-3.36,2.48-6.4,4.01-9.79-.7-.56-1.43-.43-2.26-.9,2.32-5.53,4.17-1.65,5.18-5.04.73-2.46,3.93-2.78,5.42-1.83l-1.57,3.28,2.55.79c.15,1.01-.58,1.95-1.21,2.59-.77.8-2.06.66-3.47.42-1.49,3.65-2.9,7.22-4.94,10.64Z"/>
    <path class="cls-1" d="M258.2,127.64c-.48,1.01-1.19,1.73-1.93,1.81-.94.1-1.96.06-2.63-.51l3.9-9.31c.31-.73-.84-.67-1.24-.96-.65-.46-.01-1.61.35-2.35.29-.58,1.26-.93,2.22-1.04,2.54-.29,1.36-3.3,3.72-4.16.77-.28,2.77-.4,3.04.36.21,1.24-.85,2.32-.87,3.43l2.14.7c.09,1.2-.89,3.23-2.37,3.17-1.6-.06-2.24.16-2.9,1.56l-3.44,7.3Z"/>
    <path class="cls-1" d="M116.78,128.61c-.63,1.19-2.79.79-3.89.53.41-1.92,4.35-8.72,4-9.84-.11-.35-.83-.37-1.15-.73-.5-.56.22-2.43,1-2.68,1.52-.48,2.9-.76,3.54-2.45.66-1.74,2.47-2.67,4.3-1.82-.15,1.29-.58,2.38-1.02,3.58l2.63.33c-.01,1.02-.22,2.52-1.32,2.99-.85.37-2.53-.36-3.07.66l-5.01,9.43Z"/>
    <path class="cls-1" d="M106.17,128.26c-.7,1.32-2.74,1.92-3.92,1.04-.1-2,5.4-12.16,6.44-13.58.62-.85,2.53-.24,3.33.26-1.76,4.32-3.7,8.22-5.84,12.29Z"/>
    <path class="cls-1" d="M114.53,110.54c-.68,2.11-2.45,2.99-4.45,2.34-.16-1.22.27-2.45,1.35-3.16.89-.59,2.31-1.06,3.37-.38.23.23-.15.82-.27,1.21Z"/>
  </g>
</svg>