<?xml version="1.0" encoding="UTF-8"?>
<svg id="Layer_1" data-name="Layer 1" xmlns="http://www.w3.org/2000/svg" viewBox="0 0 349.57 109.83">
  <defs>
    <style>
      .cls-1 {
        fill: #fff;
      }
    </style>
  </defs>
  <path class="cls-1" d="M61.56,84.99c-1.55,5.67-6.38,11.47-11,14.31-12.36,7.59-28.75,5.5-40-4.11-9.32-7.96-14.1-22.79-7.5-33.74,3.95-6.54,11.9-9.46,18.92-6.16,9.53,4.49,6.69,12.87,8.2,18.19.52,1.83,3.24,2.62,4.75,2.44,1.97-.24,3.64-1.43,4.35-3.58.95-2.88.42-6.08-1.14-8.8-6.3-10.95-25.14-15.57-27.27-34.99-1.13-10.31,4.13-19.75,13.01-24.92C29.06.62,34.66-.19,40.78.09c9.3.43,17.68,5.6,22.86,13.26,4.52,6.69,5.1,17.57.24,24.27-2.72,3.75-6.68,6.09-11.13,5.69-4.2-.38-8.73-2.54-10.31-7.06-1.94-5.54.83-10.68-4.43-11.13-2.65-.23-4.56,1.1-5.17,3.61-1.81,7.55,4.14,13.07,9.67,17.39,4.38,3.41,8.39,6.82,12.21,10.89,7.02,7.5,9.56,18.04,6.85,27.99Z"/>
  <path class="cls-1" d="M323.38,99.17c-6.43-4.32-7.92-11.65-9.67-18.17-.52-1.95-2.19-7.71-4.72-7.26-2.9.52-4.59,7.94-5.3,10.72-.93,3.63-2.03,6.96-3.49,10.45-4.13,9.86-13.47,16.57-24.45,14.58-4.31-.78-8.29-3.23-10.12-6.65-2.35-4.4-2.37-9.18.12-13.28,2.21-3.65,6.11-5.39,10.13-6.28,4.47-.98,7.96-3.34,11.36-6.15,5.86-4.84,11.94-12.45,11.43-20.54-.37-6.03-6.29-14-10.29-18.47-3.5-3.93-7.86-6.21-12.56-8.2-3.7-1.56-5.88-5.49-6.18-8.79-.39-4.19,1.06-7.83,4.63-10.35,7.48-5.29,17.96-3.47,23.77,3.63,3.21,3.93,4.72,8.34,5.79,13.25l1.36,6.24c.54,2.49,1.1,5.22,2.72,7.24,1.13,1.4,3.41.41,4.19-.97,4.73-8.29,5.68-28.45,19.55-29.99,4.64-.51,9.5.34,12.73,3.44,7.01,6.73,6.28,17.83-1.51,23.47-2.91,2.11-6.25,3.15-9.7,4.38-5.53,1.97-10.28,5.55-12.98,10.79-3.24,6.29-.28,13.74,6.54,16.15,2.88,1.02,6.33.22,9.49.08,6.59-.3,11.84,4.09,13.02,10.58,1.47,8.06-2.1,16.66-9.48,20.77-4.98,2.78-11.66,2.5-16.38-.66Z"/>
  <path class="cls-1" d="M239.95,98.52c-7.73,4.03-11.95,4.06-20.26,3.73-1.06-.04-2.39-.63-3.42-.89-4.88-1.24-9.56-3.32-12.64-7.42-3.08-4.09-2.12-9.85-.18-14.3,2.23-5.1,4.46-10.2,5.32-15.86.76-4.97.72-10.28-.09-15.11-.75-4.45-2.69-8.14-4.77-11.82-2.98-5.29-1.46-11.32,2.85-15.4s10.38-6.04,16.56-6.39c6.65-.38,12.63,1.51,17.66,5.84,4.91,4.22,6.7,10.25,6.23,16.82-.29,3.98-2.1,7.72-4.88,10.75l-4.57,4.99c-.6.66.07,2.31.87,2.67,4.7,2.14,7.55,3.25,10.41,8.21,4.73,8.22,4.63,18.4-.65,26.23-2.22,3.28-4.98,6.15-8.43,7.95ZM222.51,43.49c3.48,1.97,7.18-1.8,7.34-5.02.09-1.79.24-3.76-.87-5.08-2-2.41-6.38-2.16-7.77.73-1.34,2.78-1.73,7.66,1.29,9.37ZM233.93,75.28c-.1-3.54-2.27-5.89-5.74-6.49-3.85-.67-7.31,2.8-7.51,6.77-.12,2.53.1,5.21,2.09,6.85,2.36,1.95,5.44,1.61,7.8.17s3.46-3.87,3.37-7.3Z"/>
  <path class="cls-1" d="M123.3,89.98c-1.26-8.4-6.2-8.37-11.21-15.86-2.27-3.39-2.24-6.91-.84-10.59,2.16-5.67,1.92-14.75.56-20.61l-1.19-5.13c-1.41-6.1-2.06-16.16,4.61-19.6,3.09-1.59,7.01-1.82,10.17.34,2.76,1.88,4.86,5.19,5.94,8.4l2.82,8.33c.76,2.26,4.13,14.96,7.45,14.39,2.05-.35.7-6.8.37-7.84l-5.08-15.96c-1.34-4.21-1.4-8.97-.81-13.32.84-6.31,5.85-11.47,11.97-12.39,3.71-.56,6.98.44,9.85,2.39,4.84,3.29,5.53,9.15,2.88,14.18-1.84,3.5-3.93,7.03-4.97,10.88-2.15,7.91-1.73,15.91-.4,23.98,1.1,6.73,2.93,12.99,3.18,19.87.11,3.09-1.22,6.3-3.09,8.7-1.2,1.54-3.93,3.22-5.9,3.15-5.22-.21-9.27-3.74-11.53-8.09-3.54-6.8-4.81-15.68-8.87-24.04-.29-.59-1.48-1.39-2.08-1.43-4.2-.29,1.65,12.52,2.31,14.19l3.09,7.9c1.61,4.12,2.45,8.67,1.11,12.81-1.43,4.42-6.19,7.45-10.33,5.35Z"/>
  <path class="cls-1" d="M99.08,101.97c-19.34-11.4-1.36-42.48-14.33-40.48-2.27.35-3.85,2.38-3.51,5.07,1.01,8,7.51,19.02-.66,27.12-4.07,4.03-10.72,3.9-15.09-.06-1.38-1.25-1.5-3.26-.69-4.74,1.88-3.42,2.19-6.88,2.3-10.64.16-5.7-.58-10.83-3.45-15.81-1.21-2.1-1.52-5.48-.39-7.67,2.44-4.72,4.55-9.29,5.92-14.45l2.9-10.97c2.27-8.6,7.49-17.08,17.36-17.46,4.84-.19,9.26,1.18,12.03,5.23,5.35,7.8,3.51,16.05,2.71,25.49-.93,11.09-1.45,25.21,4.95,34.48,1.52,2.2,3.55,4.03,5.56,5.73,5.46,4.62,5.86,12.6.58,17.65-4.33,4.14-10.95,4.6-16.18,1.52ZM90.48,34.25c-.12-.59-1.16-1.6-1.71-1.52-3.42.45-7,9.56-6.39,14.63.27,2.23,3.21,2.76,4.72,2.14,4.11-1.71,4.04-12.06,3.39-15.24Z"/>
  <path class="cls-1" d="M190,85.55c-7.4,5.18-21.22,7.66-26.62-.07s2.43-15.33,1.74-27.65c-.23-4.1-.37-8.83-2.6-12.25-2.71-4.16-4.92-8.66-2.7-13.7,1.62-3.67,5.3-5.72,9.16-6.73,6.93-1.8,15.14.6,21.24,4.47,15.75,9.97,18.5,30.99,9.31,46.11-2.36,3.88-5.86,7.26-9.53,9.83ZM186.47,62.67c2.31-6.03,1.88-14.64-5.23-17.66-.79-.34-2.47-.12-3.08.42-1.93,1.7.09,7.63-.17,12.78l-.4,7.86c-.03.63.71,1.76,1.19,2.06,2.27,1.46,6.51-2.36,7.7-5.47Z"/>
  <path class="cls-1" d="M289.64,60.24c-1.4,11.51-9.78,20.9-21.12,21.07-4.04.06-7.82-1.65-11.14-3.59-1.88-9.49-1.7-12.96-9.05-20.09-1.67-12.48,7.39-25.87,21.15-25.28,14.47.62,21.8,14.48,20.17,27.89ZM273.27,51.4c-.73-1.46-2.38-2.53-3.76-2.68s-3.25.69-4.14,2.01c-2.04,3.01-2.24,6.96-.69,10.18.87,1.82,2.62,2.79,4.53,2.86,4.4.16,6.53-7.42,4.06-12.37Z"/>
</svg>