<?xml version="1.0" encoding="UTF-8"?>
<svg id="Layer_1" data-name="Layer 1" xmlns="http://www.w3.org/2000/svg" viewBox="0 0 230.75 386.37">
  <defs>
    <style>
      .cls-1 {
        fill: #e8e0cc;
      }

      .cls-2 {
        fill: #1c492a;
      }
    </style>
  </defs>
  <path class="cls-2" d="M24.88,371.16c-.98-1.35-4.89-3.26-2.93-3.85,4.98-1.48,10.01-2.25,15.23-2.64,2.29-.17.1-5.14.61-7.07,3.36,1.17,6,3.44,9.32,5.31l1-6.7c1.56.69,6.36,5.71,7.1,5.72.95,0,2.27-7.05,3.46-8.85,1.62,1.08,6.42,8.04,7.38,8.12,1.52.13,10.53-8.01,13.22-8.01,1.1,0,1.63,5.36,2.87,6.71,2.31-2.54,3.19-5.79,3.45-9.11.56-7.24.37-14.24-.31-21.54l-5.01-53.81c-2.02-1.96-3.84-3.5-5.53-5.56-4.01-4.9-4.11-11.89-.61-17.16s6.63-6.73,8.97-13.09c2.55-6.95,4.77-13.79,6.57-21,.29-1.16.78-2.88.04-3.98-1.07-1.59-2.37-3.85-4.15-4.8-5.04-2.69-9.97-4.97-14.78-8.03-1.57-1-3.31-1.85-5.12-2.22l-8.18-1.63c-5.83-1.16-9.27,5-16.86-6.54-3.2.47-6.92,2.39-10.12.35-2.51-1.61-3.37-4.29-4.12-7.1-2.31-1.77-7.28,1.65-9.29-4.29-.64-1.9-.73-3.98-1.03-6.07-1.13-.75-2.56-.62-3.82-1.31-2.85-1.57-3.62-5.21-2.29-8.2,4.85-10.97,17.78-23.18,27.65-29.99,12.94-8.93,27.57-14.37,43.25-16.99-1.64-2.61-3.23-4.53-4.98-6.75l-37.05-47.02c-2.29-2.9-4.43-5.52-6.95-8.27-6.6,2.97-11.96,6.67-19.59,4.61-5.44-1.47-10.77-8.21-11.97-13.42-.45-1.93-.34-4.27,0-6.21.54-2.99,2.58-5.4,4.81-7.28,7.34-6.18,18.77-7.78,28.04-6.51,6.58.9,11.06,6.05,15,11.22l15.28,20.05c3.67-6.34,5.22-9.4,11.37-13.79,4.76-3.39,9.73-6.14,14.75-9.05,1.13-8.39-1.57-11.74,4.88-18.53C103.96,6.87,122.26,2.17,135.59.35c6.06-.82,12.19-.46,16.81,3.89l8.09,7.59c1.86,1.75,3.76,3.93,6.14,5.07l23.64.87c6.52.24,15.89,2.15,20.16,7.32,2.63,3.18,2.66,7.27.22,10.58-3.87,5.26-8.5,7.19-13.78,10.95,4.53,2.35,8.58,4.8,11.83,8.55,2.75,3.16,5.06,6.68,5.87,10.9s.68,8.6-.78,12.62c-2.37,6.52-6.81,12.09-12.1,16.33-3.25,2.6-9.38,2.98-11.63-.95-1.37-2.39-2.11-5.01-3.29-7.53-2.21-4.72-7.92-12.78-13.68-12.4s-11.98.83-17.24,3.48c-6.45,3.24-12.95,5.07-20.55,3.9,2.67,4.81,5.6,8.88,9.52,12.35,4.9,4.35,9.92,8.17,14.96,12.31l9.99,8.21c12.21,10.03,24.5,27.02,26.94,43.13.56,3.72.47,7.72-.05,11.48-.92,6.58-4.04,12.74-8.01,17.98-6.52,8.61-17.79,15.1-27.41,19.78-6.53,3.18-12.87,6.23-19.17,9.79-2.27,1.28-4.27,2.44-7.01,2.9-9.64,11.43-19.2,22.72-27.82,35.04-1.74,5.9.92,10.45,4.65,14.98l48.25,58.57c3.14,3.81,5.5,7.42,7.34,11.97,1.88,4.65,4.4,8.96,5.64,13.9.63,2.5,2.12,4.74,4.85,5.28,4.65-8.24,12.19-13.47,21.44-9.23,6.31,2.89,9.73,8.91,8.84,15.9,2.94-.4,16.73-.1,17.88.95,1.07.97-2.17,2.83-2.56,3.75,1.76,1.05,7.18,2.71,7.17,4.87,0,.62-.16,1.56-.87,2.03-3.12,2.1-6.6,3.58-10.46,4.16-24.26,3.65-27.27,4.06-52.21,3.61-7.37-.13-14.42-.8-21.64-1.97-2.48-.4-4.59-.21-7.01.3-9.09,1.94-20.49.87-29.74-1.11-5.53,1.95-10.95,3.03-16.85,3.45-13.63.95-26.98.35-40.56-1.11-10.29-1.11-26.18-2.83-34.69-8.71,1.78-1.75,9.41-3.21,8.17-4.93ZM40.7,368.76c-4.86-.16-9.15-.34-13.58.46l5.16,2.91-9.85,3.96c4.23,1.5,8.35,2.44,12.94,3.12,21.37,3.2,42.66,4.48,64.52,3.97.98.06.39-.32-.3-.43-11.49-1.07-22.75-2.2-34.12-3.94-4.15-.64-7.91-1.42-11.89-3.05,2.32-1.34,4.87-2.05,7.6-2.43l9.74-1.33c.2-.74-.16-.79.23-1.73,5.81,1.55,12.64-.27,18.18,1.88,5.94,2.31,10.83,6.2,17.31,7.4l16.49,3.05c5.03.93,9.62.29,14.36-1.39,3.69-1.31,8.85-1.87,11.07-6.87.22-.49,1.1-1.45,1.77-1.07,8.77,4.91,9.69.6,13.25,1.79,2.11.7,4.68.52,6.4-.91.88-.73.88-1.95,1.25-3.06l9.64-.04c1.52,0-2.52-2.65-3.12-8.04-.3-2.69-5.71,2.56-6.7,2.74-3.47-7.27-1.34-10.07-5.81-17.54-3.71-6.2-1.99-7.57-8.64-15.54l-25.76-30.83-28.98-35.27c-.73-4.49-1.08-8.55-.79-13.05l30.73-38.35c1.81-.05,3.53.12,4.93-.8,4.89-3.23,9.9-5.73,15.26-8.14,11.44-5.15,23.3-10.96,31.79-20.3,12.03-13.23,9.97-31.13,1.12-45.45-5.26-8.51-11.56-16.21-19.41-22.41l-17.83-14.07c-9.44-7.45-18.55-16.28-19.98-29.13,4.34,1.34,8.4,2.01,12.61,2.13,6.01.18,10.65-2.59,15.87-4.91,3.91-1.73,8.61-1.94,12.84-2.87,7.46-1.63,14.45,1.56,19.08,7.35,3.58,4.47,5.52,9.55,7.46,14.93.53.89,2.77.14,3.51-.41,9.32-6.95,15.85-19.08,8.03-29.78-6.25-8.55-17.83-12.14-28.05-12.39l-12.86-.3c.5-1.79,1.98-3.65.9-5.09-1.42-1.9-2.8-.01-5.2-3.02-1.68-2.1-3.6-4.13-3.44-7.19,1.77-.1,4.63-.86,6.18.28,1.83,1.9,3.01,4.34,5.34,5.84,1.58,1.02,2.13,3.07,2.58,4.83l9.21.48c3.26.17,6.27-.25,9.25-1.49,4.99-2.07,13.15-5.96,15.91-10.65,1.11-1.88.54-3.93-1.29-5.18-6.35-4.34-22.6-4.51-30.39-4.73-3.79-.11-7.35-.24-11.23.02l-4.55-4.25c-3.42-3.19-6.87-6.07-10.07-9.49-2.08-2.22-4.89-3.55-8.02-3.38-15.29.82-30.99,5.67-43.12,15.1-1.91,1.49-2.65,4.09-2.69,6.39l-.13,8.29c-.02,1.46-.34,3.35-1.71,4.17l-13.56,8.13c-4.39,2.63-8.06,6.1-10.33,10.61-1.88,3.74-.9,7.59,2.66,9.78,6.23,3.84,17.06,2.92,24.3,1.78-.85-6.16-1.2-14.65,3.46-19.14.5,2.56-1.42,5.06,1.2,6.26l-.97,9.3,1.7-.34c.08,14.12,9.3,29.47,19.48,38.57l9.8,8.76c5.18,4.64,9.78,9.54,13.72,15.28,2.6,3.78,4.55,7.88,4.96,12.49.09,1.04-.16,2.29-.79,2.64s-2.02.68-2.76.21l-10.53-6.62c-8.3-5.22-17.16-9.05-26.9-11.24l-38.39-48.59-31.38-40.2c-6.27-8.03-25.79-4.96-32.46,1.5-5.56,5.39.42,14.23,5.59,16.62,2.56,1.19,5.56,1.06,8.07-.23l12.51-6.45,59.18,74.6c-30.98.71-58.85,15.95-76.16,41.11-.89,1.3-1.34,2.8-.98,4.46l14.65-7.01-6.36,10.16c-1.4,2.24-2.24,4.79-1.54,7.54,5.11-1.39,9.08-6.06,13.99-8.97-.99,3.29-5.81,14.46-3.49,16.6,2.62,2.42,8.98-4.49,11.56-6.19,1.2,3.99.62,9.62,3.81,12.09.68.53,1.38.78,2.18.71.65-.06,1.3-.5,1.75-1.2l1.68-2.67,5.44,3.63c1.74,1.16,3.89,1.28,6.03,1.05-.06-.92-.77-1.27-.64-2.41,8.32,5.54,17.11,10.16,26.28,14.52,1.67,2.73,3,5.87,6.01,7.74-2.4,11.03-5.13,21.54-9.73,31.67-1.58,3.48-4.32,6.16-6.89,8.82-3.85,3.98-4.13,9.61-.22,13.64,1.73,1.78,3.56,3.24,5.71,4.7l4.93,51.94c.63,6.68,1.56,28.07-.42,33.45-.87,2.37-2.4,4.88-4.06,6.57l-6.67.25-2.68-7.64-10.52,8.14-6.03-7.46-2.66,8.78-7.03-5.54-.85,5.69-8.99-5.19c-.13,2.32.73,4.21.36,6.53ZM138.41,130.37c1.7-2.21-8.79-11.52-9.91-12.49-7.04-6.15-13.31-12.6-19.41-19.68-4.41-5.12-8.13-10.36-11.46-16.18-3.06-5.35-9.92-5.32-14.77-2.97-3.04,1.47,2.74,8.03,4.17,9.76l23.57,28.44c2.03,2.45,4.6,4.28,7.58,5.41l20.22,7.72ZM196.16,373.52c4.28-1.06,7.2-4.25,8.04-8.05.94-4.27-.51-8.36-3.88-11.09-3.54-2.86-8.12-3.6-12.38-1.69-3.56,1.6-6.48,5.18-6.72,9.58-.21,3.82,1.87,7.16,4.55,9.32,2.94,2.36,6.6,2.87,10.39,1.93ZM150.96,383.19c17.51.82,34.38.42,51.48-1.44,6.01-.66,17.84-2.48,23.13-5.88-3.19-1.82-6.35-2.78-9.45-3.99,1.53-.93,2.93-1.48,4.34-2.69-2.87-.59-5.61-.46-8.51-.3l-7.62.42-3.06,4.13,1.61,1.54c-8.19,3.19-19.34,4.89-28.19,5.67l-22.48,1.96c-.65-.19-1.45.02-1.25.59Z"/>
  <path class="cls-1" d="M40.7,368.76c.37-2.32-.49-4.2-.36-6.53l8.99,5.19.85-5.69,7.03,5.54,2.66-8.78,6.03,7.46,10.52-8.14,2.68,7.64,6.67-.25c1.66-1.69,3.19-4.2,4.06-6.57,1.97-5.38,1.05-26.77.42-33.45l-4.93-51.94c-2.15-1.47-3.98-2.92-5.71-4.7-3.91-4.03-3.63-9.66.22-13.64,2.57-2.65,5.31-5.34,6.89-8.82,4.6-10.13,7.33-20.64,9.73-31.67-3.01-1.87-4.33-5.01-6.01-7.74-9.17-4.36-17.96-8.98-26.28-14.52-.13,1.14.59,1.5.64,2.41-2.14.24-4.29.11-6.03-1.05l-5.44-3.63-1.68,2.67c-.44.71-1.1,1.15-1.75,1.2-.8.07-1.5-.18-2.18-.71-3.19-2.48-2.62-8.1-3.81-12.09-2.59,1.7-8.94,8.61-11.56,6.19-2.32-2.13,2.5-13.31,3.49-16.6-4.91,2.91-8.89,7.58-13.99,8.97-.7-2.76.13-5.3,1.54-7.54l6.36-10.16-14.65,7.01c-.36-1.66.09-3.16.98-4.46,17.31-25.16,45.18-40.4,76.16-41.11L33.08,48.66l-12.51,6.45c-2.51,1.3-5.51,1.42-8.07.23-5.16-2.4-11.15-11.23-5.59-16.62,6.67-6.46,26.18-9.54,32.46-1.5l31.38,40.2,38.39,48.59c9.74,2.19,18.6,6.02,26.9,11.24l10.53,6.62c.75.47,2.1.16,2.76-.21s.89-1.61.79-2.64c-.42-4.61-2.36-8.71-4.96-12.49-3.95-5.74-8.54-10.65-13.72-15.28l-9.8-8.76c-10.18-9.11-19.41-24.46-19.48-38.57l-1.7.34.97-9.3c-2.63-1.2-.7-3.7-1.2-6.26-4.66,4.5-4.31,12.98-3.46,19.14-7.24,1.14-18.07,2.06-24.3-1.78-3.55-2.19-4.54-6.04-2.66-9.78,2.27-4.51,5.94-7.97,10.33-10.61l13.56-8.13c1.37-.82,1.69-2.71,1.71-4.17l.13-8.29c.04-2.3.78-4.9,2.69-6.39,12.12-9.43,27.83-14.29,43.12-15.1,3.13-.17,5.93,1.16,8.02,3.38,3.2,3.42,6.65,6.3,10.07,9.49l4.55,4.25c3.88-.26,7.44-.12,11.23-.02,7.8.22,24.05.39,30.39,4.73,1.82,1.25,2.39,3.3,1.29,5.18-2.77,4.69-10.93,8.57-15.91,10.65-2.98,1.24-5.99,1.66-9.25,1.49l-9.21-.48c-.44-1.76-1-3.81-2.58-4.83-2.34-1.51-3.52-3.95-5.34-5.84-1.55-1.14-4.41-.38-6.18-.28-.16,3.06,1.76,5.09,3.44,7.19,2.4,3,3.78,1.11,5.2,3.02,1.08,1.45-.4,3.3-.9,5.09l12.86.3c10.22.24,21.8,3.83,28.05,12.39,7.82,10.7,1.29,22.83-8.03,29.78-.74.55-2.98,1.29-3.51.41-1.94-5.38-3.88-10.46-7.46-14.93-4.63-5.78-11.62-8.98-19.08-7.35-4.23.92-8.93,1.13-12.84,2.87-5.22,2.31-9.86,5.08-15.87,4.91-4.21-.12-8.27-.79-12.61-2.13,1.43,12.86,10.54,21.69,19.98,29.13l17.83,14.07c7.85,6.19,14.15,13.9,19.41,22.41,8.85,14.32,10.91,32.22-1.12,45.45-8.49,9.34-20.35,15.15-31.79,20.3-5.37,2.42-10.38,4.92-15.26,8.14-1.4.92-3.12.75-4.93.8l-30.73,38.35c-.29,4.5.06,8.56.79,13.05l28.98,35.27,25.76,30.83c6.65,7.97,4.94,9.34,8.64,15.54,4.47,7.47,2.34,10.27,5.81,17.54.99-.18,6.4-5.43,6.7-2.74.6,5.4,4.63,8.03,3.12,8.04l-9.64.04c-.38,1.11-.38,2.33-1.25,3.06-1.72,1.43-4.29,1.61-6.4.91-3.55-1.18-4.47,3.12-13.25-1.79-.67-.37-1.55.58-1.77,1.07-2.22,5-7.38,5.56-11.07,6.87-4.74,1.68-9.32,2.32-14.36,1.39l-16.49-3.05c-6.48-1.2-11.36-5.09-17.31-7.4-5.54-2.15-12.37-.34-18.18-1.88-.39.94-.03.99-.23,1.73l-9.74,1.33c-2.74.37-5.28,1.09-7.6,2.43,3.98,1.64,7.74,2.42,11.89,3.05,11.37,1.74,22.63,2.88,34.12,3.94.69.11,1.28.5.3.43-21.86.51-43.14-.77-64.52-3.97-4.59-.69-8.7-1.62-12.94-3.12l9.85-3.96-5.16-2.91c4.43-.8,8.72-.62,13.58-.46ZM151.64,15.54c-2.56-4.32-5.54-8.27-11.04-7.92-10.29.65-20.32,3.14-29.62,7.55-4.92,2.33-15.12,8.26-12.59,15.16,17.77-8.67,33.08-13.83,53.25-14.79ZM154.25,21.69c-5.68-1.29-11.09-.87-16.19,1.24,5.62.26,11.02-.15,16.19-1.24ZM201.53,28.43c-4.09-3.9-24.21-4.12-29.78-4.13-14.52-.03-28.56,1.58-42.63,5.23-15.83,4.1-30.94,10.05-45.09,18.13-3.54,2.02-14.14,9.04-12.48,14.32,4.84-3.91,9.58-7.46,15.07-10.32,31.59-16.41,79.73-27.08,114.92-23.23ZM108.45,32.31c2.85.4,13.16-2.61,11.37-6.24-1.65-3.35-7.71.13-9.75,2.04,2.5.22,7.64-3.2,8.42-1.4,1.05,2.45-9.49,3.69-10.04,5.6ZM109.9,28.33c0-.1-.08-.17-.17-.17s-.17.08-.17.17.08.17.17.17.17-.08.17-.17ZM153.45,70.23c4.76-2.54,7.63-.1,11.08-3.56l-13.43-2.1c-8.29-1.3-8.93-6.75-13.02-5.04-.48.2-.9-.13-.97-.41-.24-1.02,3.87-3.3,6.83-.69,5.48,4.85,12.63,5.05,19.92,5.59,13.64,1,23.91,3.66,30.4,17.44,1.46-4.02.42-8.3-1.6-11.96-.67-1.22-1.62-2.2-2.1-3.49,1.83-2.29,6.88-2.37,7.67-4.95,2.17-7.15-14.47-9.52-19.15-9.6l-20.23-.32c-2.99-.05-3.82-4.6-5.82-4.85-1.02-.13-2.04.17-2.7.99l-2.5,3.11c-1.67,2.07-4.09,3.39-6.77,3.64-5.4.5-6.35-3.43-8.37-6.73-3.67-.69-7.2-.74-10.62-1.88,6.21-1.21,12.11-2.03,18.28-2.41,5.15-.31,8.99,1.7,14.27.54,2.35-.52,4.59-.84,7.08-1.17-4.41-2.42-6.89-3.81-6.81-9.76-14.24,1.13-28.65,4.93-41.85,9.72-.25,3.49-6.82,1.11-7.96,8.54.93-.23,1.65-.73,2.79-.7-1.3,3.44-3.14,6.98-1.56,10.76l2.59-2.79-.03,9.91-2.15-.44c-.26,2.77.14,5.33.92,7.98,3.23,10.92,10.22,21.2,18.55,28.92l13.98,12.94c8.17,7.56,14.3,16.83,18.1,27.3,2.39,6.58,3.3,17.43-5.06,20.49.81,3.03,3.22,5.37,5.63,6.19,6.1,2.07,9.47-2.04,13.44-5.97.6,2.46.37,4.65.17,7.11,9.97-2.68,9.09-13.52,6.22-21.42l3.97,1.2c.29-2.71-.06-5.2-.89-7.66-4.1-12.15-13.27-21.21-23.27-28.81-5.74-4.37-11.29-8.56-16.78-13.23-3.52-3-6.73-5.97-9.44-9.73-3.84-5.34-6.6-11.13-8.49-17.43-.75-2.5-1.49-4.79-2.56-7.16-.51-1.12-.7-2.51.28-3.54,8.14,10.68,20.61,11.52,31.97,5.46ZM33.03,43.06l8.06,10.27c1.7-.53,3-1.6,3.94-3.17l-7.02-9.55c-4.66-6.35-13.03-5.92-20.03-4.41-3.26.71-10.18,3.16-9.96,7.35.21,3.96,2.68,7.61,6.32,9.13,2.05.86,4.24.15,6.12-.68,4.68-2.08,9.66-4.35,12.56-8.93ZM162.7,44.94c-.92-.88-2.63-.39-3.27.41-.6.75-1.04,2.32-.3,3.22.81.98,2.56.26,3.23-.36.8-.74,1.13-2.51.33-3.27ZM143.18,50.08c1.22-1.49,1.46-3.39.23-4.81-2.27-.58-4.17,1.21-4.27,3.51-.05,1.09.63,1.93,1.5,2.24s1.81-.04,2.55-.94ZM131.51,142.84c-3.35.54-10.21-.01-11.38,3.89,7.78-.33,14.53-1.83,20.28,4-4.26.32-11.04-.52-13.43,3.62,2.26-.05,4.15-.46,6.34-.7,5.45-.6,10.97,1.98,13.04,7.17.77,1.93-.03,4.04.27,6.05,8.45-.32.57-14.52-2.4-17.48l-5.47-5.44c-2.83-2.82-6.48-4.71-9.9-6.73l-5.76-3.4c-3.76-2.22-8.49-1.58-12.97-1.08l-24.66-30.91-38.16-48.54c-1.45.75-2.72,1.39-4.18,2.53l22.44,28.54,39.28,49.71-14.89,7.35c-4.5,2.22-8.95,3.98-13.76,5.38-4.54,1.25-9.15,1.17-13.55-.48-4.02-1.51-3.89-4.91-4.82-8.1-1.7-.15-2.87,1.15-2.92,2.79-.1,3.23,1.67,5.96,4.36,7.63,7.28,4.54,17.16,2.75,24.74-.29,8.72-3.48,17.08-9.19,25.8-11.6,3.64-1,7.33-1.21,11,.2l-5.35,2.01c-1.28.48-2.5,1.34-2.9,2.83,6-1.14,13.77-3.12,18.94,1.02ZM154.97,184.65c-1.09,2.05-5.58,4.61-7.77,2.68-3.86-4.92-9.5-15.82-13.77-20.14-.63-.64-1.85-.69-2.52-.53-.59.15-1.75,1.29-1.31,1.9,4.32,5.97,9.03,11.47,12.12,18.15,1.97,4.24,5.98,6.27,10.51,4.69,2.92-1.02,5.58-2.77,6.75-5.7,1.32-3.3.29-6.67-2.91-8.33-2.36-1.22-4.39-2.65-6.21-4.64l-9.51-10.42c-1.57-1.72-4.1-2.05-6.38-1.75-4.55.58-8.32,2.85-11.65,5.9l-15.48,14.18c-4.73,4.33-10.12,7.44-16.03,9.8-7.97,3.17-16.13,3.68-24.73,1.87,7.18,4.26,13.83,5.72,21.83,3.31,7.93-2.4,15.41-5.7,21.45-11.4l15.98-15.07c3.04-2.86,9.69-6.95,13.1-3.14l9.92,11.07c2.08,2.33,8.91,3.25,6.6,7.62ZM135.99,202.02c-7.86.49-15.18,1.14-23.02.54l3.29-2.12c-6.09.33-11.66-.76-17.77-2.14.57,2.23,4.77,4.51,6.87,5.88l-8.5.13c5.55,4.07,12.25,5.75,18.99,4.84,3.78-.51,18.69-3.57,20.13-7.12ZM103.98,243.16c8-9.06,15.16-18.15,21.94-27.94l-13.34,1.1-4.3,11.52c-1.55,5.06-3.54,9.8-4.29,15.32ZM168.31,373.32c1.23-.1,1.31-1.88,1.27-2.62-.09-1.79-.73-3.28-1.44-4.81-3.06-6.56-2.39-10.34-3.71-13.1l-5.27-11.04c-2.01-4.2-4.62-7.77-8.02-10.91-3.05-2.81-5.63-5.66-8.29-8.92l-33.39-40.95c-3.66-4.49-7.02-8.78-10.3-13.48-.76-1.09-1.64-1.9-2.99-2.39.43-1.45,1.4-2.38,1.63-3.8-.77-3-1.38-6.1-.44-9.16l10.52-34.26-7.83-.32-3.7,13.72c-1.73,6.43-3.9,12.47-6.79,18.45-1.71,3.54-3.57,6.78-4.71,10.57-.99,3.29.4,7.43,3.46,8.82,1.53.69,2.92.82,3.33,2.72l26.21,29.34c7.98,8.94,15.01,18.27,22.02,27.94,1.76,4,3.08,7.79,4.04,12.05l5.79,25.6c.96,4.27,4.31,7.02,8.83,7.01.15-1.58-.08-3-.4-4.54l-3.51-17c7.4,6.69,2.98,14.36,7.55,18.92,1.46,1.45,4.01,2.31,6.14,2.14ZM137.1,379.93c2.24-.5,4.26-.88,5.99-2.41-.88-1.9-2.22-4.11-4.29-4.57l-6.62-1.48c5.08-1.08,9.96.54,12.56,4.88.46.33,1.54-.54,1.53-1.06-.06-3.22-8.27-6.18-11.33-6.48-5.05-.5-9.87-.8-14.9-1.62l-16.23-2.65c1.23-4.6-2.53-4.8-2.86-11.2l-3.59-69.31-6.51-6.4,3.18,48.65,1.04,23.08c.19,4.19-.9,8.18-1.07,12.29-.07,1.59-.8,2.44-2.15,3.35-.97.65-1.89,3.35-.9,4.33,1.57,1.55,3.68,2.46,5.57,3.57,3.84,2.25,7.91,3.62,12.31,4.42l15.64,2.86c3.18.58,6.31.42,9.5-.64-1.08-1.74-2.73-2.32-4.44-2.65l-7.02-1.36c-1.89-.37-3.68-.91-5.02-2.37l7.79.61c4.39.35,10.07,1.59,11.82,6.17ZM145.48,365.96c-1.53-8.86-6.31-17.31-6.63-26.01l-.17-4.68c-.11-3-2.49-5.62-4.48-8.1l-18.15-22.68c-4.57-5.71-9.34-10.8-14.49-16.1-.31,2.97-.19,5.38-.06,8.24l2.72,56.9c.12,2.48.94,5.9,3,7.15,4.32,2.61,9.23,3.57,14.14,4.49,7.7,1.45,16.23,1.23,24.13.79Z"/>
  <path class="cls-1" d="M150.96,383.19c-.2-.57.6-.78,1.25-.59l22.48-1.96c8.85-.77,20-2.48,28.19-5.67l-1.61-1.54,3.06-4.13,7.62-.42c2.9-.16,5.63-.29,8.51.3-1.41,1.21-2.81,1.76-4.34,2.69,3.1,1.21,6.26,2.16,9.45,3.99-5.29,3.4-17.12,5.23-23.13,5.88-17.1,1.86-33.98,2.26-51.48,1.44Z"/>
  <path class="cls-1" d="M196.16,373.52c-3.79.94-7.44.44-10.39-1.93-2.69-2.16-4.76-5.5-4.55-9.32.24-4.4,3.15-7.98,6.72-9.58,4.26-1.92,8.84-1.17,12.38,1.69,3.37,2.72,4.83,6.81,3.88,11.09-.84,3.8-3.76,6.99-8.04,8.05ZM196.94,370.22c3.48-1.84,5.17-5.32,4.56-9.06-.52-3.17-3.05-5.94-6.53-6.78-3.04-.74-6.06-.07-8.42,2.11-1.91,1.77-3.16,4.53-2.65,7.54.48,2.84,2.5,5.05,4.71,6.18,2.66,1.36,5.6,1.44,8.33,0Z"/>
  <path class="cls-2" d="M153.45,70.23c-11.36,6.06-23.83,5.22-31.97-5.46-.99,1.03-.79,2.42-.28,3.54,1.07,2.37,1.81,4.66,2.56,7.16,1.89,6.3,4.64,12.09,8.49,17.43,2.71,3.77,5.92,6.74,9.44,9.73,5.49,4.67,11.04,8.86,16.78,13.23,10,7.6,19.17,16.66,23.27,28.81.83,2.46,1.18,4.95.89,7.66l-3.97-1.2c2.88,7.89,3.76,18.74-6.22,21.42.2-2.46.43-4.65-.17-7.11-3.97,3.92-7.34,8.04-13.44,5.97-2.41-.82-4.83-3.16-5.63-6.19,8.36-3.06,7.45-13.91,5.06-20.49-3.8-10.46-9.93-19.74-18.1-27.3l-13.98-12.94c-8.34-7.72-15.33-18-18.55-28.92-.78-2.65-1.19-5.21-.92-7.98l2.15.44.03-9.91-2.59,2.79c-1.58-3.77.26-7.32,1.56-10.76-1.15-.03-1.87.47-2.79.7,1.14-7.42,7.71-5.05,7.96-8.54,13.19-4.79,27.61-8.6,41.85-9.72-.09,5.95,2.4,7.34,6.81,9.76-2.49.33-4.74.65-7.08,1.17-5.28,1.17-9.12-.85-14.27-.54-6.17.38-12.07,1.19-18.28,2.41,3.43,1.14,6.96,1.19,10.62,1.88,2.02,3.3,2.97,7.24,8.37,6.73,2.68-.25,5.1-1.56,6.77-3.64l2.5-3.11c.66-.82,1.68-1.12,2.7-.99,2,.26,2.84,4.8,5.82,4.85l20.23.32c4.68.08,21.32,2.45,19.15,9.6-.79,2.59-5.83,2.66-7.67,4.95.47,1.29,1.42,2.27,2.1,3.49,2.02,3.66,3.07,7.94,1.6,11.96-6.48-13.78-16.76-16.44-30.4-17.44-7.29-.54-14.44-.73-19.92-5.59-2.95-2.61-7.07-.33-6.83.69.07.28.49.61.97.41,4.09-1.7,4.73,3.74,13.02,5.04l13.43,2.1c-3.45,3.46-6.31,1.02-11.08,3.56ZM143.84,37.75c-2.79-1.59-5.92-.63-6.82,2.39,2.61-.2,4.93-.98,6.82-2.39Z"/>
  <path class="cls-2" d="M168.31,373.32c-2.13.16-4.68-.69-6.14-2.14-4.57-4.56-.14-12.23-7.55-18.92l3.51,17c.32,1.54.55,2.96.4,4.54-4.52,0-7.87-2.75-8.83-7.01l-5.79-25.6c-.96-4.26-2.28-8.05-4.04-12.05-7-9.67-14.04-19.01-22.02-27.94l-26.21-29.34c-.41-1.9-1.8-2.03-3.33-2.72-3.06-1.39-4.44-5.53-3.46-8.82,1.13-3.78,3-7.03,4.71-10.57,2.89-5.98,5.05-12.02,6.79-18.45l3.7-13.72,7.83.32-10.52,34.26c-.94,3.05-.34,6.15.44,9.16-.23,1.42-1.2,2.35-1.63,3.8,1.35.49,2.23,1.31,2.99,2.39,3.27,4.7,6.64,8.99,10.3,13.48l33.39,40.95c2.66,3.26,5.24,6.11,8.29,8.92,3.4,3.14,6.02,6.71,8.02,10.91l5.27,11.04c1.32,2.76.65,6.54,3.71,13.1.71,1.53,1.36,3.02,1.44,4.81.04.73-.04,2.52-1.27,2.62Z"/>
  <path class="cls-2" d="M131.51,142.84c-5.16-4.15-12.94-2.16-18.94-1.02.4-1.48,1.62-2.35,2.9-2.83l5.35-2.01c-3.67-1.41-7.36-1.2-11-.2-8.71,2.41-17.08,8.11-25.8,11.6-7.59,3.03-17.46,4.82-24.74.29-2.69-1.68-4.46-4.4-4.36-7.63.05-1.64,1.22-2.94,2.92-2.79.94,3.18.8,6.59,4.82,8.1,4.39,1.65,9.01,1.73,13.55.48,4.81-1.4,9.26-3.16,13.76-5.38l14.89-7.35-39.28-49.71-22.44-28.54c1.46-1.14,2.72-1.78,4.18-2.53l38.16,48.54,24.66,30.91c4.48-.5,9.21-1.14,12.97,1.08l5.76,3.4c3.42,2.02,7.06,3.91,9.9,6.73l5.47,5.44c2.97,2.95,10.85,17.15,2.4,17.48-.3-2.01.5-4.12-.27-6.05-2.07-5.2-7.59-7.77-13.04-7.17-2.19.24-4.08.65-6.34.7,2.39-4.14,9.17-3.29,13.43-3.62-5.75-5.83-12.5-4.33-20.28-4,1.17-3.91,8.03-3.36,11.38-3.89Z"/>
  <path class="cls-2" d="M137.1,379.93c-1.74-4.58-7.42-5.82-11.82-6.17l-7.79-.61c1.34,1.47,3.13,2.01,5.02,2.37l7.02,1.36c1.72.33,3.36.91,4.44,2.65-3.19,1.05-6.32,1.22-9.5.64l-15.64-2.86c-4.41-.81-8.48-2.17-12.31-4.42-1.89-1.11-4-2.01-5.57-3.57-.99-.98-.07-3.68.9-4.33,1.35-.9,2.08-1.76,2.15-3.35.17-4.12,1.26-8.11,1.07-12.29l-1.04-23.08-3.18-48.65,6.51,6.4,3.59,69.31c.33,6.4,4.09,6.59,2.86,11.2l16.23,2.65c5.03.82,9.85,1.12,14.9,1.62,3.06.3,11.27,3.27,11.33,6.48,0,.52-1.07,1.39-1.53,1.06-2.6-4.35-7.48-5.97-12.56-4.88l6.62,1.48c2.07.46,3.41,2.68,4.29,4.57-1.73,1.53-3.75,1.91-5.99,2.41Z"/>
  <path class="cls-2" d="M145.48,365.96c-7.9.44-16.42.66-24.13-.79-4.91-.92-9.83-1.88-14.14-4.49-2.06-1.24-2.88-4.67-3-7.15l-2.72-56.9c-.14-2.86-.25-5.27.06-8.24,5.16,5.3,9.92,10.39,14.49,16.1l18.15,22.68c1.98,2.48,4.37,5.1,4.48,8.1l.17,4.68c.32,8.7,5.1,17.15,6.63,26.01ZM137.12,360.62c1.39-1.03,1.73-3.04,1.43-4.68-1.11-6.04-2.59-11.82-4.16-17.77-.87-3.3-2.3-6.24-4.36-8.98-4.35-5.79-16-20.51-21.05-24.7-.42-.35-1.19-.37-1.51-.09-.22.2-.35.73-.33,1.27l1.58,39.12c.23,5.77.97,12.65,7.7,14.51,4.58,1.26,16.72,4.26,20.7,1.31Z"/>
  <path class="cls-2" d="M201.53,28.43c-35.2-3.85-83.33,6.82-114.92,23.23-5.49,2.85-10.23,6.41-15.07,10.32-1.66-5.28,8.94-12.3,12.48-14.32,14.15-8.08,29.26-14.03,45.09-18.13,14.07-3.64,28.12-5.25,42.63-5.23,5.57.01,25.7.23,29.78,4.13Z"/>
  <path class="cls-2" d="M154.97,184.65c2.31-4.36-4.52-5.29-6.6-7.62l-9.92-11.07c-3.42-3.81-10.07.27-13.1,3.14l-15.98,15.07c-6.05,5.7-13.52,9-21.45,11.4-7.99,2.42-14.64.95-21.83-3.31,8.6,1.81,16.76,1.3,24.73-1.87,5.92-2.35,11.31-5.47,16.03-9.8l15.48-14.18c3.32-3.04,7.1-5.31,11.65-5.9,2.29-.29,4.81.03,6.38,1.75l9.51,10.42c1.82,1.99,3.85,3.42,6.21,4.64,3.2,1.66,4.23,5.03,2.91,8.33-1.17,2.94-3.83,4.68-6.75,5.7-4.52,1.58-8.54-.45-10.51-4.69-3.1-6.67-7.81-12.18-12.12-18.15-.44-.61.71-1.75,1.31-1.9.66-.16,1.89-.11,2.52.53,4.27,4.32,9.9,15.23,13.77,20.14,2.19,1.94,6.68-.62,7.77-2.68Z"/>
  <path class="cls-2" d="M151.64,15.54c-20.17.96-35.47,6.11-53.25,14.79-2.53-6.91,7.68-12.84,12.59-15.16,9.3-4.4,19.33-6.89,29.62-7.55,5.5-.35,8.48,3.6,11.04,7.92Z"/>
  <path class="cls-2" d="M33.03,43.06c-2.9,4.58-7.88,6.85-12.56,8.93-1.88.84-4.08,1.54-6.12.68-3.64-1.53-6.11-5.18-6.32-9.13-.22-4.18,6.7-6.64,9.96-7.35,7-1.51,15.36-1.94,20.03,4.41l7.02,9.55c-.95,1.58-2.25,2.65-3.94,3.17l-8.06-10.27ZM25.01,39.77c-4.74-.29-8.43,1.9-12.03,4.01,4.5.06,8.57-1.6,12.03-4.01ZM17.53,48.46l10.27-4.96c-.5-.99-1.57-1.12-2.54-.7l-8.95,3.89c-.55.24-.67,1.24-.43,1.55.19.25,1.04.51,1.64.21Z"/>
  <path class="cls-2" d="M135.99,202.02c-1.45,3.55-16.35,6.61-20.13,7.12-6.74.92-13.44-.77-18.99-4.84l8.5-.13c-2.1-1.36-6.3-3.65-6.87-5.88,6.11,1.38,11.68,2.47,17.77,2.14l-3.29,2.12c7.83.6,15.15-.06,23.02-.54Z"/>
  <path class="cls-2" d="M103.98,243.16c.75-5.52,2.74-10.27,4.29-15.32l4.3-11.52,13.34-1.1c-6.78,9.79-13.94,18.88-21.94,27.94Z"/>
  <path class="cls-2" d="M108.45,32.31c.55-1.91,11.09-3.15,10.04-5.6-.77-1.8-5.91,1.62-8.42,1.4,2.03-1.92,8.09-5.4,9.75-2.04,1.79,3.63-8.51,6.64-11.37,6.24Z"/>
  <path class="cls-2" d="M143.18,50.08c-.74.9-1.68,1.26-2.55.94s-1.55-1.15-1.5-2.24c.1-2.3,2-4.09,4.27-3.51,1.24,1.42.99,3.32-.23,4.81Z"/>
  <path class="cls-2" d="M154.25,21.69c-5.17,1.09-10.57,1.5-16.19,1.24,5.1-2.11,10.5-2.53,16.19-1.24Z"/>
  <path class="cls-2" d="M162.7,44.94c.8.76.47,2.53-.33,3.27-.67.62-2.42,1.34-3.23.36-.74-.9-.3-2.47.3-3.22.64-.8,2.34-1.29,3.27-.41Z"/>
  <circle class="cls-2" cx="109.73" cy="28.33" r=".17"/>
  <path class="cls-2" d="M196.94,370.22c-2.73,1.44-5.67,1.36-8.33,0-2.21-1.14-4.24-3.34-4.71-6.18-.5-3.01.74-5.77,2.65-7.54,2.36-2.18,5.38-2.85,8.42-2.11,3.48.84,6.02,3.61,6.53,6.78.61,3.74-1.07,7.22-4.56,9.06Z"/>
  <path class="cls-1" d="M143.84,37.75c-1.89,1.41-4.21,2.19-6.82,2.39.9-3.02,4.03-3.98,6.82-2.39Z"/>
  <path class="cls-1" d="M17.53,48.46c-.61.29-1.45.04-1.64-.21-.24-.32-.12-1.31.43-1.55l8.95-3.89c.97-.42,2.05-.29,2.54.7l-10.27,4.96Z"/>
  <path class="cls-1" d="M25.01,39.77c-3.46,2.41-7.53,4.06-12.03,4.01,3.6-2.1,7.28-4.3,12.03-4.01Z"/>
</svg>