<?xml version="1.0" encoding="UTF-8"?>
<svg id="Layer_1" data-name="Layer 1" xmlns="http://www.w3.org/2000/svg" viewBox="0 0 261.95 369">
  <defs>
    <style>
      .cls-1 {
        fill: #ebe2ce;
      }

      .cls-2 {
        fill: #fff;
      }

      .cls-3 {
        fill: #1c492a;
      }
    </style>
  </defs>
  <path class="cls-1" d="M123.83,353.18l119-83.88-62.42-230.19h-107.29c-23.41,44.87-56.6,113.4-48.77,161.91,9.07,56.18,37.06,119,99.49,152.16Z"/>
  <g>
    <path class="cls-3" d="M261.13,217.38c7.29,61.12-35.33,129.42-92.63,147.12-46.46,14.35-88.58-7.08-117.77-43.48C1.54,259.7-13.26,176.1,12.42,101.8c11.96-34.63,32.92-62.93,63.02-82.82C101.35,1.86,133.08-4.52,162.47,3.32c35.11,9.36,54.22,40.48,48.55,75.41-5.13,31.58,3.88,59.66,24.09,83.24,13.53,15.78,23.53,34.6,26.02,55.42ZM156.64,161.81c12.24-6.56,19.58-17.83,19.51-30.29-.07-11.98-7.73-24-19.95-29.18l-38.83-16.45c-2.55-1.08-5.55-6.82-4.62-9.27,4.55-11.99,27.13,1.31,34.77,5.31,7.79,4.08,16.74,3.96,22.84-2.43,4.5-4.72,6.71-13.13,3.78-20.95-3.64-9.74-13.36-16.19-23.81-18.81-30.5-7.63-76.41,6.41-76.45,38.24-.04,36.85,58.41,37.41,54.31,53.13-.69,2.65-6.36,5.96-9.5,5.95-31.19-.05-41.19-32.29-60.63-25.9-5.64,1.85-11.64,8.94-12.02,16.39-1.65,31.87,63.65,59.41,110.6,34.24ZM151.55,282.77c1.79-9.46,17.14,13.7,37.81,8.47,8.82-2.23,19.35-7.13,25.45-17.02,17.4-28.19,14.95-65.69-4.71-91.9-12.81-17.08-34.53-21.41-50.66-7.42-6.09,5.29-8.33,13.59-6.64,21.51,6.19,29.07-4.94,57.01-33.68,69.43-10.13,16.09-9.16,71.73,18.87,65.62,20.94-4.56,10.79-34.12,13.55-48.7ZM127.1,245.61c12.8-11.74,17.37-31.14,11.58-47.76-8.2-23.51-35.15-5.88-75.49-24.64-4-1.86-11.32-1.73-14.35.58s-6.55,8.85-6.7,13.36c-.87,27.55,6.35,90.11,29.93,106.66,4.03,2.83,12.31,1.99,15.86-.55,15.21-10.93-5.88-38.22,1.33-41.43,4.24-1.89,20.75,9.49,37.84-6.21Z"/>
    <path class="cls-2" d="M183.93,252.32c15.9-17.26,10.91-43.35,2.26-44.61-12.44-1.81-25,40.59-13.89,46.75,2.33,1.29,9.67,0,11.64-2.14Z"/>
    <path class="cls-2" d="M103.37,214.36c-.57-3.74-4.82-8.08-7.73-9.59s-9.69-1.62-11.87.99c-4.49,5.38-3.39,13.64.78,18.96,2.03,2.6,10.15,2.39,13.39.79,2.96-1.45,6.13-6.58,5.43-11.15Z"/>
    <path class="cls-3" d="M183.93,252.32c-1.96,2.13-9.31,3.43-11.64,2.14-11.11-6.17,1.45-48.57,13.89-46.75,8.65,1.26,13.65,27.35-2.26,44.61Z"/>
    <path class="cls-3" d="M103.37,214.36c.7,4.57-2.48,9.69-5.43,11.15-3.25,1.6-11.36,1.81-13.39-.79-4.16-5.32-5.27-13.58-.78-18.96,2.18-2.61,9.08-2.43,11.87-.99s7.16,5.85,7.73,9.59Z"/>
  </g>
</svg>