<?xml version="1.0" encoding="UTF-8"?>
<svg id="Layer_1" data-name="Layer 1" xmlns="http://www.w3.org/2000/svg" viewBox="0 0 262.31 369.5">
  <defs>
    <style>
      .cls-1 {
        fill: #ebe2ce;
      }

      .cls-2 {
        fill: #1c492a;
      }
    </style>
  </defs>
  <path class="cls-1" d="M126.6,351.13l119.81-84.46-62.85-231.77h-108.03c-23.57,45.18-56.99,114.18-49.1,163.02,9.13,56.56,37.32,119.81,100.17,153.2Z"/>
  <g>
    <path class="cls-1" d="M261.49,217.68c7.31,61.2-35.37,129.59-92.75,147.31-46.53,14.36-88.7-7.09-117.95-43.55C1.54,260.05-13.27,176.34,12.44,101.94c11.98-34.67,32.96-63.01,63.11-82.93C101.49,1.86,133.27-4.52,162.69,3.32c35.16,9.39,54.29,40.54,48.61,75.52-5.13,31.6,3.89,59.73,24.14,83.34,13.53,15.81,23.55,34.65,26.04,55.51ZM215.12,274.6c17.42-28.22,14.97-65.78-4.71-92.04-12.85-17.11-34.59-21.43-50.73-7.42-6.11,5.3-8.35,13.61-6.66,21.55,6.21,29.11-4.95,57.08-33.72,69.51-10.14,16.11-9.17,71.83,18.9,65.72,20.98-4.58,10.8-34.18,13.57-48.77,1.81-9.47,17.17,13.71,37.87,8.49,8.82-2.22,19.37-7.13,25.49-17.03ZM156.86,162.02c12.26-6.56,19.6-17.83,19.52-30.33-.08-11.98-7.74-24.02-19.98-29.21l-38.89-16.46c-2.55-1.08-5.56-6.84-4.62-9.29,4.54-12,27.16,1.32,34.8,5.32,7.8,4.09,16.77,3.97,22.88-2.44,4.5-4.71,6.72-13.14,3.79-20.98-3.65-9.74-13.4-16.2-23.84-18.84-30.54-7.64-76.52,6.42-76.56,38.3-.04,36.89,58.49,37.46,54.39,53.19-.69,2.67-6.36,5.97-9.51,5.97-31.23-.04-41.25-32.35-60.71-25.93-5.64,1.85-11.65,8.94-12.04,16.4-1.65,31.92,63.74,59.49,110.76,34.27ZM127.28,245.95c12.81-11.77,17.4-31.19,11.59-47.83-8.21-23.55-35.2-5.89-75.58-24.67-4.01-1.87-11.35-1.73-14.38.57-3.01,2.3-6.56,8.88-6.72,13.38-.86,27.6,6.36,90.23,29.97,106.81,4.05,2.83,12.33,1.98,15.89-.55,15.22-10.96-5.89-38.28,1.34-41.5,4.24-1.89,20.76,9.51,37.89-6.21Z"/>
    <path class="cls-2" d="M210.4,182.56c19.68,26.26,22.14,63.82,4.71,92.04-6.13,9.9-16.68,14.81-25.49,17.03-20.7,5.22-36.06-17.95-37.87-8.49-2.77,14.59,7.4,44.19-13.57,48.77-28.07,6.11-29.03-49.61-18.9-65.72,28.77-12.43,39.93-40.4,33.72-69.51-1.69-7.94.55-16.24,6.66-21.55,16.15-14,37.89-9.68,50.73,7.42ZM184.18,252.66c15.93-17.28,10.92-43.41,2.26-44.68-12.45-1.81-25.04,40.66-13.91,46.83,2.34,1.3,9.68-.02,11.65-2.14Z"/>
    <path class="cls-1" d="M186.44,207.98c8.66,1.28,13.67,27.4-2.26,44.68-1.96,2.12-9.31,3.44-11.65,2.14-11.14-6.17,1.45-48.63,13.91-46.83Z"/>
    <path class="cls-2" d="M176.38,131.69c.08,12.49-7.27,23.77-19.52,30.33-47.02,25.22-112.41-2.36-110.76-34.27.39-7.46,6.4-14.55,12.04-16.4,19.46-6.42,29.48,25.89,60.71,25.93,3.14,0,8.82-3.3,9.51-5.97,4.11-15.73-54.43-16.3-54.39-53.19.04-31.88,46.02-45.94,76.56-38.3,10.45,2.63,20.19,9.09,23.84,18.84,2.93,7.84.71,16.26-3.79,20.98-6.11,6.4-15.08,6.52-22.88,2.44-7.64-4.01-30.27-17.32-34.8-5.32-.94,2.46,2.06,8.21,4.62,9.29l38.89,16.46c12.24,5.19,19.9,17.23,19.98,29.21Z"/>
    <path class="cls-2" d="M138.87,198.12c5.81,16.64,1.22,36.06-11.59,47.83-17.13,15.71-33.65,4.32-37.89,6.21-7.23,3.22,13.89,30.54-1.34,41.5-3.56,2.53-11.84,3.38-15.89.55-23.61-16.58-30.84-79.21-29.97-106.81.16-4.5,3.71-11.08,6.72-13.38,3.02-2.3,10.37-2.44,14.38-.57,40.38,18.78,67.37,1.12,75.58,24.67ZM98.07,225.81c2.97-1.45,6.15-6.6,5.44-11.18-.57-3.73-4.81-8.09-7.74-9.6-2.79-1.43-9.7-1.61-11.88,1-4.5,5.38-3.4,13.65.77,18.97,2.04,2.61,10.15,2.4,13.42.81Z"/>
    <path class="cls-1" d="M103.51,214.64c.71,4.58-2.47,9.72-5.44,11.18-3.26,1.59-11.37,1.81-13.42-.81-4.16-5.32-5.26-13.59-.77-18.97,2.18-2.61,9.09-2.44,11.88-1,2.93,1.51,7.17,5.87,7.74,9.6Z"/>
  </g>
</svg>