<?xml version="1.0" encoding="UTF-8"?>
<svg id="Layer_1" data-name="Layer 1" xmlns="http://www.w3.org/2000/svg" viewBox="0 0 299.94 371">
  <defs>
    <style>
      .cls-1 {
        fill: #fff;
      }

      .cls-2 {
        fill: #1c492a;
      }

      .cls-3 {
        fill: #e8e0cc;
      }
    </style>
  </defs>
  <path class="cls-2" d="M253.84,126.41l4.14-1.07c.19.53.36.52.38-.06.2-8.18-1.21-15.7-5.89-22.19-.41-.56-.47-2.41-.08-2.99,1.72-2.48,8.76-1.52,9.56-7.58.75-5.66-8.18-9.26-13.32-10.69l1.16-4.18c5.64,1.68,10.92,4.07,15.51,7.51,6.03,4.51,10.86,10.4,13.1,17.5,3.17,10.11,1.83,20.34-3.81,29.08-2.7,4.15-9.92,13.21-15.45,10.44-.3-.16-.49-.47-.5-.81-.38-5.23-2.16-10.31-4.79-14.95Z"/>
  <path class="cls-2" d="M253.84,126.41c-2.63-4.65-6.1-8.85-9.84-12.32-9.75-8.99-21.03-8.1-32.81-5.36l-.94-3.84c1.21-.22,2.02-.75,1.99-1.96-.03-1.13-.92-1.47-2.13-1.55l.33-4.34c6.66.55,12.82,1.07,20.92,3.62,11.22,3.53,22.47,13.27,26.62,24.68l-4.14,1.07Z"/>
  <path class="cls-2" d="M238.12,312.44c1.1,1.39,1.57,3.37.52,5.12s-5.25,2.48-8.96,2.93c-.22-.42-.45-.83-.64-1.28-1.66-4.09-3.65-8.02-6.36-11.5l-17.25-22.11c-.05-.06-.14-.09-.2-.16.39-.09.8-.2,1.19-.3,2.99-.71,5.91-1.22,8.99-1.14.3,0,.58.16.77.39,1.02,1.32,3.07,3.98,4.09,5.3.83,1.07,1.83,2.33,2.91,3.73,4.73,6.03,11.31,14.4,14.95,19.02Z"/>
  <path class="cls-2" d="M91.21,79.26c-3.78,3.96-5.67,7.82-3.81,10.94,18.07-18.08,47.12-31.84,70.98-39.22,19.15-5.92,38.45-9.54,58.46-10.2,14.67-.49,26.86-.66,40.68,3.65-2.98-2.44-6.46-3.67-10.28-4.53-10.81-2.46-21.73-3.67-32.76-3.67l.02-3.45c16.33.16,37.02,1.66,47.37,8.99,3.62,2.57,4.04,6.77,1.49,10.34-6.16,8.6-20.26,13.54-30.1,16.77-3.12,1.03-7.18,1.54-9.6.55-.09-.05-.13-.38-.17-.92-.17-2.46-.44-9.12-7.49-10.03-.91-.11-1.47-.63-1.91-1.33-1.28-2.12-1.22-6.05-4.47-6.78-1.9-.44-3.79-.75-5.67-.97-7.49-.86-14.95-.16-22.55,1.07-14.92,2.41-29.17,7.05-41.98,14.98-3.43,2.12-6.64,4.29-9.31,7.1-.77.81.17,2.08,1.18,1.58.03-.02.06-.03.08-.05.97-.49,1.9.74,1.19,1.55-1.8,2.04-3.51,4.07-4.84,6.49-2.07,3.71-3.43,7.76-3.48,11.88-.02,1.02,1.35,1.38,1.86.5.94-1.66,1.9-3.2,3.21-4.47.78-.78,2.05.11,1.6,1.11-2.44,5.39,2.37,15.64-3.59,16.97-.89.19-.58-3.51-1.47-3.35-10.26,1.85,1.55,25.6,7.07,36.98,7.76,15.97,33.3,36.9,52.63,51.03,19.82,14.51,44.8,33.97,48.67,60.48.13.91-.91,1.5-1.63.91-1.63-1.33-3.32-2.41-5.14-3.38-1.1-.58-2.22-1.13-3.42-1.65-.17-.08-.31-.2-.42-.36-1.66-2.59-3.7-4.79-6.02-6.58.17-.55.05-1.55-.2-2.08-18.39-39.38-75.3-58.11-93.45-99.09-5.44-12.25-8.43-24.8-8.38-38.07,0-.55-.42-1-.97-1-2.99-.02-8.99-.05-11.99-.06-5.2-.03-10.39-1.22-14.89-3.38-5-2.4-7.11-7.35-5.36-12.53.92-2.76,2.71-5.48,5-8.09l3.87,1.39Z"/>
  <path class="cls-2" d="M206.91,296.98c-11.61,6.13-25.37,10.73-38.61,11.31l.58-10.5c1.05-18.96-17.06-21.36-5.28-37.79-.08.05-.16.09-.24.16.19-.19.44-.44.75-.74.09-.09.45-.47.96-.99.08-.06.16-.13.24-.2,3.85-3.48,7.83-6.35,12.25-9.12,9.73-6.16,28.77-12.66,38.51-3.79.71.64.2,1.8-.75,1.74-4.78-.38-9.32.56-13.48,2.51-1.07.49-.6,2.1.56,1.88,7.43-1.38,14.95-.89,21.95,2.1,3.37,1.44,6.19,3.65,7.74,6.88.34.72-.3,1.52-1.08,1.38-7.24-1.21-14.57-.42-21.15,2.46-1.08.49-.56,2.12.61,1.9,9.2-1.8,17.89-2.57,26.64,2.51,3.98,2.32,6.24,6.67,5,11.11-.19.66-.99.96-1.54.55-6.44-4.89-15.09-4.09-22.27-2.62-3.82.78-8.63,2.01-13.21,3.59-2.76.96-5.44,2.04-7.76,3.24-1,.52,1,3.71,2.12,3.51l1.82-1.08c.03.11.06.24.14.33,1.8,2.35,4.56,5.92,7.27,9.43l-.38-.41c-.33-.13-1.08.49-1.41.66Z"/>
  <path class="cls-3" d="M216.84,40.78c-20.01.66-39.31,4.28-58.46,10.2-23.86,7.38-52.91,21.14-70.98,39.22-1.86-3.12.03-6.97,3.81-10.94,9.06-9.51,28.97-19.7,34.09-22.01,22.64-10.28,46.46-17.19,71.23-19.98,6.02-.69,11.99-1.03,17.94-1.03,11.03,0,21.95,1.21,32.76,3.67,3.82.86,7.3,2.08,10.28,4.53-13.82-4.31-26.01-4.14-40.68-3.65Z"/>
  <path class="cls-3" d="M208.4,74.47c-.69-2.05,1.22-5.88,3.46-5.88.3,0,.61.06.91.22,2.62,1.27.56,5.72-1.58,6.69-.44.19-.83.28-1.18.28-.77,0-1.33-.44-1.61-1.32Z"/>
  <path class="cls-2" d="M202.6,104.94c2.05-.3,5.48.34,7.65-.05l.94,3.84c-.6.14-1.19.3-1.79.44l-5.95,1.47c-.11.03-.22.08-.31.14-6.71,4.62-14.18,7.51-22.36,8.48-6.35.77-12.17-.33-18.58-1.94-.61-.14-1.24.28-1.24.91-.16,14.48,19.73,33.52,30.19,41.1,8.49,6.14,25.46,18.43,33.95,24.57,21.5,15.56,40.86,28.67,54.53,52.35,11.31,19.6,13.91,42.49,6.44,63.94-3.93,11.3-10.59,21.06-19.15,29.41-16.8,16.37-39.88,25.54-62.89,29.33-27.12,4.48-54.82,2.77-80.94-5.75-21.2-6.91-43.57-20.35-55.62-39.48-2.66-4.23-4.48-8.68-5.95-13.46-5.63-18.44.64-39.75,17.75-49.32.47-.27,1.77-.39,2.13-.06.3.27.83,1.1.92,1.58.64,3.1,1.9,9.31,2.52,12.41,1.57,7.72,4.23,14.87,8.88,21.25,15.72,21.53,45.31,31.06,71.01,31.89,12.83.41,25.12-2.01,36.93-6.88,3.21-1.32,8.52-4.94,12.3-7.52.5.66.97,1.27,1.39,1.8,3.53,4.58,6.16,9.4,8.38,14.7.17.41.41.77.69,1.1-.05,0-.11.02-.16.02,2.46,3.12,4,3.84,8.24,3.09,6.85-1.19,7.18-1.93,9.71-4.39,3.81-3.67.92-6.83-1.93-11.22-1.13-1.74-2.93-4.17-4.4-5.83-2.68-3.06-6.55-6.69-9.24-10.03-3.17-3.87-4.73-7.3-.99-8.88,8.79-3.71,21.67,17.96,33.97,4.87,8.3-8.82,10.61-20.48,5.72-31.29-.42-.94.69-1.82,1.5-1.19l4.39,3.38c.45.36,1.75.38,2.18.11,1.96-1.22.89-7.41.3-9.75-2.21-8.57-6.1-16.09-11.31-23.19-14.87-20.23-34.28-30.98-54.7-45.88-3.82-2.8-7.71-5.52-11.66-8.13-20.34-13.44-48.78-43.36-46.6-70.74.06-.81.88-2.01,1.52-2.1.55-.08,1.96.39,2.35,1,6.88,10.91,19.74,12.53,31.81,11.14,6.41-.74,12-3.29,17.05-7.05.13-.09.27-.16.42-.17ZM180.4,345.19c-18.35.42-35.22-1.83-51.97-9.67-6.38-2.99-12.14-6.38-17.44-11.09,3.79.42,7.07.85,10.51.03-14.62-4.54-26.45-14.01-34.49-26.43,1.58,8.26,6.02,13.95,9.98,20.95-7.38-3.68-12.46-7.18-17.94-12.96,2.08,5.39,5.8,9.5,9.28,13.69,3.85,4.64,9.12,6.17,13.76,9.5,12.46,8.88,25.76,15.87,41.41,18.22,12.6,1.88,24.82,1.8,36.9-2.24Z"/>
  <path class="cls-2" d="M210.01,75.78c.34,0,.74-.09,1.18-.28,2.15-.97,4.2-5.42,1.58-6.69-.3-.16-.61-.22-.91-.22l.11-3.74c1.43.02,2.93.16,4.59.52,1.91.39,3.34,1.5,3.51,3.34.03.31.02.64-.03,1l-.38,2.88c-.08.58.36,1.1.94,1.11,9.56.34,19.84,1.18,29.17,3.95l-1.16,4.18c-.33-.09-.64-.17-.94-.25-6.49-1.61-12.96-2.44-19.66-2.46-4.4-.03-13.21-.06-17.61-.08-.17,0-.36,0-.53-.02l.14-3.24Z"/>
  <path class="cls-3" d="M209.59,61.31c.91-.02,1.35-1.08.69-1.72l3.79-2.43c.44.71,1,1.22,1.91,1.33,7.05.91,7.32,7.57,7.49,10.03l-3.4.19c-.17-1.83-1.6-2.95-3.51-3.34-1.66-.36-3.17-.5-4.59-.52-.78,0-1.52.03-2.26.09l-.13-3.64Z"/>
  <path class="cls-2" d="M203.87,52.39c2.44,1.94,3.78,4.61,6.41,7.19.66.64.22,1.71-.69,1.72-2.35.03-4.76-.64-7.02-2.13-.28-.19-.45-.53-.44-.88.03-1.28.11-3.85.16-5.14.03-.69.71-1.13,1.3-.92.11.03.2.09.28.16Z"/>
  <path class="cls-3" d="M203.93,49.4c1.88.22,3.78.53,5.67.97,3.24.74,3.18,4.67,4.47,6.78l-3.79,2.43c-2.63-2.59-3.96-5.25-6.41-7.19-.08-.06-.17-.13-.28-.16l.34-2.84Z"/>
  <path class="cls-2" d="M197.27,71.18l-.24-4.06c4.72-.27,8.34-1.77,12.68-2.18.74-.06,1.47-.09,2.26-.09l-.11,3.74c-2.24,0-4.15,3.82-3.46,5.88.28.88.85,1.32,1.61,1.32l-.14,3.24c-3.7-.24-6.77-2.65-8.46-6-.64-1.28-1.77-1.91-3.45-1.9-.24,0-.47.02-.69.05Z"/>
  <path class="cls-3" d="M197.02,77.6c-1,1.16-2.99,3.48-4,4.65-.58.67-.05,1.77.85,1.63,2.18-.34,4.29-2.02,4.9-4.48.09-.39-.22-1.41-.36-1.75-.11-.27-1.19-.28-1.39-.05ZM181.54,83.57c5.72-.56,10.22-4.59,12.35-9.82.63-1.58,1.83-2.37,3.38-2.57.22-.03.45-.05.69-.05,1.68-.02,2.8.61,3.45,1.9,1.69,3.35,4.76,5.77,8.46,6,.17.02.36.02.53.02,4.4.02,13.21.05,17.61.08,6.71.02,13.18.85,19.66,2.46.3.08.61.16.94.25,5.14,1.43,14.07,5.03,13.32,10.69-.8,6.06-7.83,5.11-9.56,7.58-.39.58-.33,2.43.08,2.99,4.68,6.49,6.1,14.01,5.89,22.19-.02.58-.19.6-.38.06-4.15-11.41-15.4-21.15-26.62-24.68-8.1-2.55-14.26-3.07-20.92-3.62-4.34-.34-8.9-.72-14.32-1.69-4.18-.75-7.54-2.71-10.7-5.39-1.5-1.27-3.4-1.96-5.3-1.99l.19-4.34c.41,0,.81-.02,1.24-.06Z"/>
  <path class="cls-2" d="M198.51,100.15c-18.97-1.02-14.46-8.82-22.91-6.35-.86.25-2.05-2.51-1.19-3.45,1.54-1.66,3.62-2.43,5.7-2.38,1.9.03,3.79.72,5.3,1.99,3.17,2.68,6.52,4.64,10.7,5.39,5.42.97,9.98,1.35,14.32,1.69l-.33,4.34c-1.79-.09-4.25.41-5.58-.09-2.02-.38-4-.75-6.02-1.14Z"/>
  <path class="cls-2" d="M191.26,227.61c5.56,7.21,4.65,9.56,4.2,10.14l-4.65.97c-3.13,1.47-6.03,2.87-8.66,4.15,0-1.05-.47-2.15-1.11-2.98l-58.93-74.02,3.56-2.84c2.27,2.79,7.9,8.96,10.53,11.59,10.18,10.2,40.36,33.92,55.08,52.98Z"/>
  <path class="cls-2" d="M198.78,79.4c-.61,2.46-2.73,4.14-4.9,4.48-.89.14-1.43-.96-.85-1.63,1-1.18,2.99-3.49,4-4.65.2-.24,1.28-.22,1.39.05.14.34.45,1.36.36,1.75Z"/>
  <path class="cls-3" d="M184.65,69.24c2.01,1.14,1.66,6.22-2.33,8.7-1.6.99-3.18.06-3.56-1.55-.69-2.91,1-6.05,3.81-7.21.44-.19,1.68-.16,2.08.06Z"/>
  <path class="cls-3" d="M182.14,242.87c0,.75-.24,1.49-.85,2.08-1,.99-2.51.88-3.74.19,1.41-.71,2.95-1.47,4.59-2.27Z"/>
  <path class="cls-3" d="M181.03,239.9c.64.83,1.11,1.93,1.11,2.98-1.65.8-3.18,1.57-4.59,2.27-.58-.3-1.1-.72-1.47-1.22l-78.48-98.68-38.56-50.61c-1.07-1.41-.78-3.37.16-4.21,1.24-1.13,3.43-1.14,4.59.38l35.76,46.76,22.56,28.33,58.93,74.02Z"/>
  <path class="cls-3" d="M171.99,247.98c1.57-.81,3.43-1.77,5.56-2.84,1.24.69,2.74.8,3.74-.19.61-.6.85-1.33.85-2.08,2.63-1.28,5.53-2.68,8.66-4.15l4.65-.97c.45-.58,1.36-2.93-4.2-10.14-14.71-19.05-44.89-42.78-55.08-52.98-2.63-2.63-8.26-8.81-10.53-11.59-.16-.19-.28-.36-.41-.52-7.25-9.43-11.59-14.71-18.87-24.15-6.99-9.07-20.98-27.22-27.97-36.3-6.39-8.3-19.15-24.9-25.52-33.2-2.71-3.51-8.52-6.91-12.93-7.43-1.63-.19-3.27-.28-4.9-.25-3.37.03-6.72.52-9.97,1.38v.02c-4.61,1.24-9.03,3.26-13,5.92-4,2.66-5,7.52-2.95,11.56,1.88,3.71,4.18,7.1,7,10.11,6.19,6.55,16.25,1.63,22.12-2.85,1.68-1.3,3.17-2.38,5.2-3.54.44-.25.99-.14,1.28.27,19.27,25.96,59.31,77.26,78.58,103.24,3.27,4.42,5.2,6.89,9.15,11.91,4.36,5.5,32.06,41,39.5,48.78ZM162.8,260.53c-1.16,0-.2-9.2-27.39-41.4-7.49-8.87-14.9-18.46-21.72-27.84-12.36-16.73-37.1-50.22-49.47-66.97-5.31-7.21-15.95-21.64-21.26-28.85-.31-.42-.88-.52-1.32-.25-9.71,6.08-22.48,9.81-31.54.49-3.74-3.85-6.77-8.27-8.77-13.24-3.17-7.85-.61-16.26,6.53-20.98,10.18-6.74,22.77-9.57,34.86-7.82,6.86.99,12.25,4.25,16.37,9.54,3.57,4.61,10.72,13.8,14.29,18.39.44.58,1.33.49,1.66-.17,1.88-3.67,3.79-6.89,6.66-9.82,7.25-7.41,15.54-13.19,24.58-18.46.31-.17.5-.5.49-.86-.03-2.62-.09-7.87-.13-10.48-.11-7.74,3.02-14.45,9.04-19.37,8.3-6.77,17.55-11.7,27.59-15.73,11.97-4.81,34.16-11.03,45.2-2.44,2.91,2.27,13.8,15.51,17.3,19.91.19.24.47.38.77.38,16.94-.34,49.25.41,62.03,11.97,7.83,7.08,5.66,17.61-1.66,24.4-3.74,3.48-9.87,3.85-12.44,8.54-.14.25-.09.69.09.92,4.67,5.99,13.55,5.58,19.18,10.61,8.43,7.51,14.04,17.52,14.81,28.99.94,13.93-4.94,27.39-15.43,36.29-3.65,3.09-8.13,4.64-12.69,4.62-5.48-.02-9.6-3.74-10.23-9.06-.72-6.19-3.31-11.56-7.33-16.25-2.74-3.2-5.64-6.16-9.34-8.24-7.87-4.43-17.22-.91-25.23.89-1.93.44-3.04,1.03-4.65,2.1-8.48,5.55-18.29,7.76-28.52,7.69-.8-.02-1.27.83-.86,1.5,6.57,10.54,21.32,22.42,29.97,28.31,3.53,2.38,7,4.84,10.44,7.36,12.53,9.24,24.96,17.14,37.06,26.61,16.58,12.96,31.42,28.17,40.25,47.55,10.34,22.69,10.7,48.6.3,71.32-4.51,9.86-10.81,18.27-18.55,25.81-23.85,23.24-57.25,32.87-89.94,34.28-17.28.75-34.02-.55-50.75-4.61-27.19-6.63-54.39-20.02-71.14-43.07-9.79-13.46-14.26-30.01-11.31-46.44,2.02-11.31,7.46-21.25,16.01-28.74,3.46-3.04,7.24-5.47,11.69-6.69,5.61-1.54,11.27,1.96,12.97,7.47,1.36,4.37,2.01,8.73,2.8,13.27,1.47,8.4,4.97,15.7,10.65,22.01,13.99,15.54,35.32,22.44,55.75,24.16,2.4.2,4.83.25,7.29.14l.39,2.15.13-2.16c13.24-.58,27-5.19,38.61-11.31.33-.17,1.08-.78,1.41-.66l.38.41c-2.71-3.51-5.47-7.08-7.27-9.43-.08-.09-.11-.22-.14-.33l-1.82,1.08c-1.11.2-3.12-2.99-2.12-3.51,2.32-1.21,5-2.29,7.76-3.24l1.3,3.85c-.39.09-.8.2-1.19.3.06.06.16.09.2.16l17.25,22.11c2.71,3.48,4.7,7.41,6.36,11.5.19.45.42.86.64,1.28,3.71-.45,7.91-1.18,8.96-2.93s.58-3.73-.52-5.12c-3.64-4.62-10.22-12.99-14.95-19.02l3.48-.61c2.7,3.34,6.57,6.97,9.24,10.03,1.47,1.66,3.27,4.09,4.4,5.83,2.85,4.39,5.73,7.55,1.93,11.22-2.54,2.46-2.87,3.2-9.71,4.39-4.25.75-5.78.03-8.24-3.09.05,0,.11-.02.16-.02-.28-.33-.52-.69-.69-1.1-2.22-5.3-4.86-10.12-8.38-14.7-.42-.53-.89-1.14-1.39-1.8-3.78,2.59-9.09,6.2-12.3,7.52-11.81,4.87-24.1,7.29-36.93,6.88-25.7-.83-55.29-10.36-71.01-31.89-4.65-6.38-7.32-13.52-8.88-21.25-.63-3.1-1.88-9.31-2.52-12.41-.09-.49-.63-1.32-.92-1.58-.36-.33-1.66-.2-2.13.06-17.11,9.57-23.38,30.88-17.75,49.32,1.47,4.78,3.29,9.23,5.95,13.46,12.05,19.13,34.42,32.58,55.62,39.48,26.12,8.52,53.82,10.23,80.94,5.75,23.02-3.79,46.1-12.96,62.89-29.33,8.56-8.35,15.21-18.11,19.15-29.41,7.47-21.45,4.87-44.34-6.44-63.94-13.66-23.68-33.03-36.79-54.53-52.35-8.49-6.14-25.46-18.43-33.95-24.57-10.47-7.58-30.35-26.62-30.19-41.1,0-.63.63-1.05,1.24-.91,6.41,1.61,12.24,2.71,18.58,1.94,8.18-.97,15.65-3.85,22.36-8.48.09-.06.2-.11.31-.14l5.95-1.47c.6-.14,1.19-.3,1.79-.44,11.78-2.74,23.06-3.64,32.81,5.36,3.74,3.46,7.21,7.66,9.84,12.32,2.63,4.64,4.42,9.71,4.79,14.95.02.34.2.66.5.81,5.53,2.77,12.75-6.28,15.45-10.44,5.64-8.74,6.97-18.97,3.81-29.08-2.24-7.1-7.07-12.99-13.1-17.5-4.59-3.43-9.87-5.83-15.51-7.51-9.34-2.77-19.62-3.6-29.17-3.95-.58-.02-1.02-.53-.94-1.11l.38-2.88c.05-.36.06-.69.03-1l3.4-.19c.05.55.08.88.17.92,2.43.99,6.49.49,9.6-.55,9.84-3.23,23.94-8.16,30.1-16.77,2.55-3.57,2.13-7.77-1.49-10.34-10.34-7.33-31.04-8.84-47.37-8.99-4.48-.03-8.63.02-12.16.09-.3.02-.58-.13-.78-.36-1.65-2.05-4.92-6.17-6.6-8.21-2.19-2.66-6.64-7.93-8.87-10.58-2.77-3.31-6.3-5.3-10.83-5.42-5.78-.16-11.5.67-17.14,2.26-13.68,3.81-27.89,10.15-38.48,19.59-3.21,2.85-4.18,6.61-4.17,10.67.02,2.62.05,7.83.06,10.45.02,2.35-.67,5.06-1.75,7.11-.09.16-.22.3-.38.38-7.58,4.31-19.16,11.25-26.06,19.1-2.29,2.6-4.07,5.33-5,8.09-1.75,5.19.36,10.14,5.36,12.53,4.5,2.16,9.68,3.35,14.89,3.38,2.99.02,8.99.05,11.99.06.55,0,.97.45.97,1-.05,13.27,2.95,25.82,8.38,38.07,18.14,40.97,75.05,59.71,93.45,99.09.25.53.38,1.54.2,2.08,2.32,1.79,4.36,4,6.02,6.58.11.16.25.28.42.36,1.19.52,2.32,1.07,3.42,1.65l-3.07,2.77c-7-2.99-14.52-3.48-21.95-2.1-1.16.22-1.63-1.39-.56-1.88,4.15-1.94,8.7-2.88,13.48-2.51.96.06,1.46-1.1.75-1.74-9.75-8.87-28.78-2.37-38.51,3.79-4.42,2.77-8.4,5.64-12.25,9.12-.08.08-.16.14-.24.2-.5.52-.86.89-.96.99-.31.3-.56.55-.75.74-.19.11-.36.24-.55.38h-.02ZM107.15,125.22c.63.81,1.94.24,1.75-.8-.81-4.5-1.46-8.56-1.77-12.85-.03-.5-.42-.89-.92-.92-2.18-.13-6.55-.38-8.74-.5-.85-.05-1.36.92-.83,1.6,2.63,3.37,7.88,10.11,10.51,13.48Z"/>
  <path class="cls-2" d="M174.48,60.9c-1.28-.74,3.04-5.94,9.56-4.14.96.27.94,1.63,0,1.91-2.04.61-6.1,1.82-8.13,2.41-.34.11-1.11,0-1.43-.19Z"/>
  <path class="cls-1" d="M168.3,308.29l-.13,2.16-.39-2.15c.17.02.34,0,.52-.02Z"/>
  <path class="cls-3" d="M163.6,260c-11.78,16.44,6.33,18.83,5.28,37.79l-.58,10.5c-.17.02-.34.03-.52.02l-2.73-15.17c-.94-5.26-3.38-10-6.03-14.51-3.79-6.46-1.94-13.99,3.78-18.1h.02c.14-.02.3-.14.55-.38.08-.06.16-.11.24-.16Z"/>
  <path class="cls-1" d="M163.37,260.16c-.25.24-.41.36-.55.38.19-.14.36-.27.55-.38Z"/>
  <path class="cls-2" d="M182.56,69.17c-2.8,1.16-4.5,4.29-3.81,7.21.38,1.61,1.96,2.54,3.56,1.55,4-2.48,4.34-7.55,2.33-8.7-.41-.22-1.65-.25-2.08-.06ZM168.6,72.79c-3.64-.55-10.89-1.65-14.52-2.19-.58-.08-1.52-1.03-1.49-1.5.16-2.32,12.49-1.58,17.39-2.74,8.34-1.97,16.44-2.66,24.57.72.13.05.25.08.38.08.74.02,1.44,0,2.12-.03l.24,4.06c-1.55.2-2.76.99-3.38,2.57-2.13,5.23-6.63,9.26-12.35,9.82-.42.05-.83.06-1.24.06-5.78,0-10.26-4.01-10.87-9.95-.05-.45-.38-.83-.83-.89Z"/>
  <path class="cls-2" d="M133.79,33.75c.33-.03.45,1.32.28,1.63-.3.56-1.14,1.49-1.55,1.3-.52-.27-1.13-.72-1.33-1.13s.67-1.63,1.11-1.68l1.49-.13Z"/>
  <path class="cls-2" d="M129.37,33.62l-1.49.85c-.33.17-1.25-.44-1.21-.8.06-.44.41-1.32.75-1.86.28-.44,1.58-.67,1.99-.36.52.41.5,1.88-.05,2.18Z"/>
  <path class="cls-2" d="M127.99,37.62c.56.39.58,1.82-.03,2.3s-1.66.64-2.1.33c-.61-.44-.58-1.74.09-2.22.61-.44,1.61-.69,2.04-.41Z"/>
  <path class="cls-3" d="M175.9,61.09c2.04-.6,6.1-1.8,8.13-2.41.94-.28.96-1.65,0-1.91-6.52-1.8-10.84,3.4-9.56,4.14.31.19,1.08.3,1.43.19ZM124.23,93.99c.05-4.12,1.41-8.16,3.48-11.88,1.33-2.41,3.04-4.45,4.84-6.49.71-.81-.22-2.04-1.19-1.55-.02.02-.05.03-.08.05-1,.5-1.94-.77-1.18-1.58,2.66-2.8,5.88-4.98,9.31-7.1,12.8-7.93,27.06-12.57,41.98-14.98,7.6-1.22,15.06-1.93,22.55-1.07l-.34,2.84c-.6-.2-1.27.24-1.3.92-.05,1.28-.13,3.85-.16,5.14-.02.34.16.69.44.88,2.26,1.49,4.67,2.16,7.02,2.13l.13,3.64c-4.34.41-7.96,1.91-12.68,2.18-.67.03-1.38.05-2.12.03-.13,0-.25-.03-.38-.08-8.13-3.38-16.23-2.7-24.57-.72-4.9,1.16-17.24.42-17.39,2.74-.03.47.91,1.43,1.49,1.5,3.64.55,10.89,1.65,14.52,2.19.45.06.78.44.83.89.61,5.94,5.09,9.95,10.87,9.95l-.19,4.34c-2.08-.05-4.17.72-5.7,2.38-.86.94.33,3.7,1.19,3.45,8.45-2.48,3.93,5.33,22.91,6.35,2.02.39,4,.77,6.02,1.14,1.33.5,3.79,0,5.58.09,1.21.08,2.1.42,2.13,1.55.03,1.21-.78,1.74-1.99,1.96-2.16.39-5.59-.25-7.65.05-.16.02-.3.08-.42.17-5.05,3.76-10.64,6.31-17.05,7.05-12.06,1.39-24.93-.24-31.81-11.14-.39-.61-1.8-1.08-2.35-1-.64.09-1.46,1.28-1.52,2.1-2.18,27.39,26.26,57.3,46.6,70.74,3.95,2.62,7.83,5.33,11.66,8.13,20.42,14.9,39.83,25.65,54.7,45.88,5.22,7.1,9.1,14.62,11.31,23.19.6,2.33,1.66,8.52-.3,9.75-.42.27-1.72.25-2.18-.11l-4.39-3.38c-.81-.63-1.93.25-1.5,1.19,4.89,10.81,2.59,22.47-5.72,31.29-12.3,13.08-25.18-8.59-33.97-4.87-3.74,1.58-2.18,5.01.99,8.88l-3.48.61c-1.08-1.39-2.08-2.66-2.91-3.73-1.02-1.32-3.07-3.98-4.09-5.3-.19-.24-.47-.39-.77-.39-3.09-.08-6,.44-8.99,1.14l-1.3-3.85c4.58-1.58,9.39-2.8,13.21-3.59,7.18-1.47,15.83-2.27,22.27,2.62.55.41,1.35.11,1.54-.55,1.24-4.43-1.02-8.79-5-11.11-8.74-5.08-17.44-4.31-26.64-2.51-1.18.22-1.69-1.41-.61-1.9,6.58-2.88,13.91-3.67,21.15-2.46.78.14,1.43-.66,1.08-1.38-1.55-3.23-4.37-5.44-7.74-6.88l3.07-2.77c1.82.97,3.51,2.05,5.14,3.38.72.6,1.75,0,1.63-.91-3.87-26.51-28.85-45.97-48.67-60.48-19.34-14.13-44.87-35.07-52.63-51.03-5.52-11.38-17.33-35.13-7.07-36.98.89-.16.58,3.54,1.47,3.35,5.95-1.33,1.14-11.58,3.59-16.97.45-1-.81-1.9-1.6-1.11-1.32,1.27-2.27,2.8-3.21,4.47-.52.88-1.88.52-1.86-.5Z"/>
  <path class="cls-2" d="M124.1,35.45c.41.05.39,1.58.11,1.85-.47.45-1.22,1-1.6.96-.36-.03-1.02-.49-1.25-.77-.25-.34.56-2.29,2.74-2.04Z"/>
  <path class="cls-3" d="M131.18,35.55c.2.41.81.86,1.33,1.13.41.19,1.25-.74,1.55-1.3.17-.31.05-1.66-.28-1.63l-1.49.13c-.44.05-1.32,1.27-1.11,1.68ZM127.88,34.47l1.49-.85c.55-.3.56-1.77.05-2.18-.41-.31-1.71-.08-1.99.36-.34.55-.69,1.43-.75,1.86-.05.36.88.97,1.21.8ZM187.15,22.57c-23.57,3.48-48.32,11.92-67.28,24.94l-.11-2.76c-.03-.88,1.77-.19,3.59-2.15.33-.34-.2-2.01-.64-1.96-.89.25-1.97.92-3.04,1.58l.33-3.67c.25-2.6,1.44-4.75,3.42-6.49,5.05-4.43,10.61-7.58,16.7-10.65,10.42-5.25,21.54-8.98,33.22-9.35,3.73-.11,6.89,1.16,8.96,3.95l4.86,6.55ZM121.36,37.49c.24.28.89.74,1.25.77.38.05,1.13-.5,1.6-.96.28-.27.3-1.8-.11-1.85-2.18-.25-2.99,1.69-2.74,2.04ZM127.99,37.62c-.42-.28-1.43-.03-2.04.41-.67.49-.71,1.79-.09,2.22.44.31,1.49.16,2.1-.33s.6-1.91.03-2.3Z"/>
  <path class="cls-2" d="M123.35,42.61c-1.82,1.96-3.62,1.27-3.59,2.15l.11,2.76c18.96-13.02,43.72-21.47,67.28-24.94l-4.86-6.55c-2.07-2.79-5.23-4.06-8.96-3.95-11.67.38-22.8,4.11-33.22,9.35-6.1,3.07-11.66,6.22-16.7,10.65-1.97,1.74-3.17,3.89-3.42,6.49l-.33,3.67c1.07-.66,2.15-1.33,3.04-1.58.44-.05.97,1.61.64,1.96ZM87.34,77.87c6.89-7.85,18.47-14.79,26.06-19.1.16-.08.28-.22.38-.38,1.08-2.05,1.77-4.76,1.75-7.11-.02-2.62-.05-7.83-.06-10.45-.02-4.06.96-7.82,4.17-10.67,10.59-9.43,24.8-15.78,38.48-19.59,5.64-1.58,11.36-2.41,17.14-2.26,4.53.13,8.05,2.12,10.83,5.42,2.22,2.65,6.67,7.91,8.87,10.58,1.68,2.04,4.95,6.16,6.6,8.21.2.24.49.38.78.36,3.53-.08,7.68-.13,12.16-.09l-.02,3.45c-5.95,0-11.92.34-17.94,1.03-24.77,2.79-48.59,9.7-71.23,19.98-5.12,2.32-25.04,12.5-34.09,22.01l-3.87-1.39Z"/>
  <path class="cls-3" d="M79.06,306.02c5.48,5.78,10.56,9.28,17.94,12.96-3.96-7-8.4-12.69-9.98-20.95,8.04,12.43,19.87,21.89,34.49,26.43-3.45.81-6.72.39-10.51-.03,5.3,4.72,11.06,8.1,17.44,11.09,16.75,7.83,33.62,10.09,51.97,9.67-12.08,4.04-24.3,4.12-36.9,2.24-15.65-2.35-28.96-9.34-41.41-18.22-4.64-3.32-9.9-4.86-13.76-9.5-3.48-4.2-7.19-8.3-9.28-13.69Z"/>
  <path class="cls-2" d="M35.06,61.2l.09,4.26c-2.96,0-6.08.44-9.01,1.18l-1.05-4.04v-.02c3.24-.86,6.6-1.35,9.97-1.38Z"/>
  <path class="cls-2" d="M32.94,69.85c.39-.16,1.43.16,1.68.33.31.25-.17,1.43-.55,1.68-1.22.77-16.83,9.9-14.35,3.27l13.22-5.28Z"/>
  <path class="cls-3" d="M32.94,69.85l-13.22,5.28c-2.48,6.63,13.13-2.51,14.35-3.27.38-.25.86-1.43.55-1.68-.25-.17-1.28-.49-1.68-.33ZM41.34,72.67c1.61,2.8,1.44,5.28-1.02,7.18-4.11,3.15-8.23,6.14-12.93,8.29-2.46,1.13-5.41,1.05-7.32-1.02-2.16-2.37-4.12-5-5.78-7.72-1.94-3.2-.99-6.75,2.16-8.81,2.44-1.6,5.92-3.02,9.68-3.95,2.93-.74,6.05-1.18,9.01-1.18,4.73,0,9.07,1.11,11.67,3.93,3.93,4.28,7.18,8.82,10.67,13.54.72.96.56,2.77.05,3.54-.61.89-2.85,2.01-3.74.97-3.51-4.09-6.5-8.18-9.6-12.53-.74-.92-1.54-1.66-2.85-2.24ZM22.13,81c.25.94.99,1.9,1.54,1.99s1.9-.08,2.51-.42l10.7-6.06c.55-.3,1.25-1.72.78-1.93-3.09-1.43-11.97,4.72-15.53,6.42Z"/>
  <path class="cls-2" d="M23.67,82.99c-.55-.09-1.28-1.05-1.54-1.99,3.56-1.71,12.44-7.85,15.53-6.42.47.2-.24,1.63-.78,1.93l-10.7,6.06c-.61.34-1.96.52-2.51.42Z"/>
  <path class="cls-2" d="M16.46,70.58c-3.15,2.05-4.11,5.61-2.16,8.81,1.66,2.73,3.62,5.36,5.78,7.72,1.91,2.07,4.86,2.15,7.32,1.02,4.7-2.15,8.82-5.14,12.93-8.29,2.46-1.9,2.63-4.37,1.02-7.18,1.32.58,2.12,1.32,2.85,2.24,3.1,4.36,6.1,8.45,9.6,12.53.89,1.03,3.13-.08,3.74-.97.52-.77.67-2.59-.05-3.54-3.49-4.72-6.74-9.26-10.67-13.54-2.6-2.82-6.94-3.93-11.67-3.93l-.09-4.26c1.63-.03,3.27.06,4.9.25,4.4.52,10.22,3.92,12.93,7.43,6.38,8.3,19.13,24.9,25.52,33.2,6.99,9.09,20.98,27.23,27.97,36.3,7.27,9.43,11.61,14.71,18.87,24.15.13.16.25.33.41.52l-3.56,2.84-22.56-28.33-35.76-46.76c-1.16-1.52-3.35-1.5-4.59-.38-.94.85-1.22,2.8-.16,4.21l38.56,50.61,78.48,98.68c.38.5.89.92,1.47,1.22-2.13,1.07-4,2.02-5.56,2.84-7.44-7.77-35.14-43.28-39.5-48.78-3.95-5.01-5.88-7.49-9.15-11.91-19.27-25.98-59.31-77.28-78.58-103.24-.3-.41-.85-.52-1.28-.27-2.04,1.16-3.53,2.24-5.2,3.54-5.88,4.48-15.93,9.4-22.12,2.85-2.82-3.01-5.12-6.39-7-10.11-2.05-4.04-1.05-8.9,2.95-11.56,3.98-2.66,8.4-4.68,13-5.92l1.05,4.04c-3.76.92-7.24,2.35-9.68,3.95Z"/>
</svg>